<?xml version="1.0" encoding="utf-8"?><svg width="348" height="324" viewBox="0 0 348 324" xmlns="http://www.w3.org/2000/svg" xmlns:xlink="http://www.w3.org/1999/xlink"><svg viewBox="0 0 24 24" width="24" height="24" id="app" x="228" y="192" xmlns="http://www.w3.org/2000/svg"><title>app</title><path d="M0 0h24v24H0z" fill="none"/><path d="M24 0v24H0V0" fill="none"/><path d="M20 5.5h-4v-2a2 2 0 0 0-2-2h-4a2 2 0 0 0-2 2v2H4a2 2 0 0 0-2 2v11a2 2 0 0 0 2 2h16a2 2 0 0 0 2-2v-11a2 2 0 0 0-2-2zm-6 0h-4v-2h4zM7.13 18.74l3.44-5.26-1.91-1.25 8.51-4.67-3.44 5.26 1.91 1.25z" fill="#141617"/></svg><svg viewBox="0 0 24 24" width="24" height="24" id="app-alt" x="192" y="252" xmlns="http://www.w3.org/2000/svg"><title>app-alt</title><path d="M0 0h24v24H0z" fill="none"/><path d="M24 0v24H0V0" fill="none"/><path d="M20 5.5h-4v-2a2 2 0 0 0-2-2h-4a2 2 0 0 0-2 2v2H4a2 2 0 0 0-2 2v11a2 2 0 0 0 2 2h16a2 2 0 0 0 2-2v-11a2 2 0 0 0-2-2zm-6 0h-4v-2h4zM7.13 18.74l3.44-5.26-1.91-1.25 8.51-4.67-3.44 5.26 1.91 1.25z" fill="#fff"/></svg><svg viewBox="0 0 24 24" width="24" height="24" id="arrow-back" x="276" y="192" xmlns="http://www.w3.org/2000/svg"><title>arrow-back</title><path d="M24 24H0V0h24z" fill="none"/><path d="M12 20l1.41-1.41L7.83 13H20v-2H7.83l5.58-5.59L12 4l-8 8z" fill="#7db448"/></svg><svg viewBox="0 0 24 24" width="24" height="24" id="arrow-back-hov" x="72" y="276" xmlns="http://www.w3.org/2000/svg"><title>arrow-back-hov</title><path d="M24 24H0V0h24z" fill="none"/><path d="M12 20l1.41-1.41L7.83 13H20v-2H7.83l5.58-5.59L12 4l-8 8z" fill="#fff"/></svg><svg viewBox="0 0 24 24" width="24" height="24" id="arrow-dd-dn" x="144" y="276" xmlns="http://www.w3.org/2000/svg"><title>arrow-dd-dn</title><path d="M7 10l5 5 5-5z" fill="#434a4f"/><path d="M0 0h24v24H0z" fill="none"/></svg><svg viewBox="0 0 24 24" width="24" height="24" id="arrow-dd-dn-alt" x="168" y="276" xmlns="http://www.w3.org/2000/svg"><title>arrow-dd-dn-alt</title><path d="M7 10l5 5 5-5z" fill="#fff"/><path d="M0 0h24v24H0z" fill="none"/></svg><svg viewBox="0 0 24 24" width="24" height="24" id="arrow-dd-up" x="300" y="120" xmlns="http://www.w3.org/2000/svg"><title>arrow-dd-up</title><path d="M7 14l5-5 5 5z" fill="#434a4f"/><path d="M0 0h24v24H0z" fill="none"/></svg><svg viewBox="0 0 24 24" width="24" height="24" id="arrow-dd-up-alt" x="300" y="144" xmlns="http://www.w3.org/2000/svg"><title>arrow-dd-up-alt</title><path d="M7 14l5-5 5 5z" fill="#fff"/><path d="M0 0h24v24H0z" fill="none"/></svg><svg viewBox="0 0 24 24" width="24" height="24" id="arrow-fwd" x="324" xmlns="http://www.w3.org/2000/svg"><title>arrow-fwd</title><path d="M0 0h24v24H0z" fill="none"/><path d="M12 4l-1.41 1.41L16.17 11H4v2h12.17l-5.58 5.59L12 20l8-8z" fill="#7db448"/></svg><svg viewBox="0 0 24 24" width="24" height="24" id="arrow-fwd-hov" x="144" y="156" xmlns="http://www.w3.org/2000/svg"><title>arrow-fwd-hov</title><path d="M0 0h24v24H0z" fill="none"/><path d="M12 4l-1.41 1.41L16.17 11H4v2h12.17l-5.58 5.59L12 20l8-8z" fill="#fff"/></svg><svg viewBox="0 0 24 24" width="24" height="24" id="arrow-kb-back" x="168" y="156" xmlns="http://www.w3.org/2000/svg"><title>arrow-kb-back</title><path d="M14.56 8.56L11.12 12l3.43 3.44-1.05 1.06L9 12l4.5-4.5z" fill="#434a4f"/><path d="M24 0v24H0V0z" fill="none"/></svg><svg viewBox="0 0 24 24" width="24" height="24" id="arrow-kb-back-alt" x="192" y="156" xmlns="http://www.w3.org/2000/svg"><title>arrow-kb-back-alt</title><path d="M14.56 8.56L11.12 12l3.43 3.44-1.05 1.06L9 12l4.5-4.5z" fill="#fff"/><path d="M24 0v24H0V0z" fill="none"/></svg><svg viewBox="0 0 24 24" width="24" height="24" id="arrow-kb-dn" x="120" y="180" xmlns="http://www.w3.org/2000/svg"><title>arrow-kb-dn</title><path d="M8.56 9.44L12 12.88l3.44-3.43 1.06 1.05L12 15l-4.5-4.5z" fill="#434a4f"/><path d="M0 0h24v24H0z" fill="none"/></svg><svg viewBox="0 0 24 24" width="24" height="24" id="arrow-kb-dn-alt" x="144" y="180" xmlns="http://www.w3.org/2000/svg"><title>arrow-kb-dn-alt</title><path d="M8.56 9.44L12 12.88l3.44-3.43 1.06 1.05L12 15l-4.5-4.5z" fill="#fff"/><path d="M0 0h24v24H0z" fill="none"/></svg><svg viewBox="0 0 24 24" width="24" height="24" id="arrow-kb-fwd" x="168" y="180" xmlns="http://www.w3.org/2000/svg"><title>arrow-kb-fwd</title><path d="M9.44 15.44L12.88 12 9.44 8.56 10.5 7.5 15 12l-4.5 4.5z" fill="#434a4f"/><path d="M0 24V0h24v24z" fill="none"/></svg><svg viewBox="0 0 24 24" width="24" height="24" id="arrow-kb-fwd-alt" x="192" y="180" xmlns="http://www.w3.org/2000/svg"><title>arrow-kb-fwd-alt</title><path d="M9.44 15.44L12.88 12 9.44 8.56 10.5 7.5 15 12l-4.5 4.5z" fill="#fff"/><path d="M0 24V0h24v24z" fill="none"/></svg><svg viewBox="0 0 24 24" width="24" height="24" id="arrow-kb-up" x="72" y="204" xmlns="http://www.w3.org/2000/svg"><title>arrow-kb-up</title><path d="M15.44 14.56L12 11.12l-3.44 3.44L7.5 13.5 12 9l4.5 4.5z" fill="#434a4f"/><path d="M24 24H0V0h24z" fill="none"/></svg><svg viewBox="0 0 24 24" width="24" height="24" id="arrow-kb-up-alt" x="96" y="204" xmlns="http://www.w3.org/2000/svg"><title>arrow-kb-up-alt</title><path d="M15.44 14.56L12 11.12l-3.44 3.44L7.5 13.5 12 9l4.5 4.5z" fill="#fff"/><path d="M24 24H0V0h24z" fill="none"/></svg><svg viewBox="0 0 24 24" width="24" height="24" id="bulb" x="120" y="204" xmlns="http://www.w3.org/2000/svg"><title>bulb</title><path d="M0 0h24v24H0z" fill="none"/><path d="M0 0h24v24H0z" fill="none"/><path d="M9 21a1 1 0 0 0 1 1h4a1 1 0 0 0 1-1v-1H9zm3-19a7 7 0 0 0-4 12.74V17a1 1 0 0 0 1 1h6a1 1 0 0 0 1-1v-2.26A7 7 0 0 0 12 2zm2.85 11.1l-.85.6V16h-4v-2.3l-.85-.6a5 5 0 1 1 5.7 0z" fill="#7db448"/></svg><svg viewBox="0 0 24 24" width="24" height="24" id="bulb-light" x="144" y="204" xmlns="http://www.w3.org/2000/svg"><title>bulb-light</title><path d="M0 0h24v24H0z" fill="none"/><path d="M0 0h24v24H0z" fill="none"/><path d="M9 21a1 1 0 0 0 1 1h4a1 1 0 0 0 1-1v-1H9zm3-19a7 7 0 0 0-4 12.74V17a1 1 0 0 0 1 1h6a1 1 0 0 0 1-1v-2.26A7 7 0 0 0 12 2zm2.85 11.1l-.85.6V16h-4v-2.3l-.85-.6a5 5 0 1 1 5.7 0z" fill="#fff"/></svg><svg viewBox="0 0 24 24" width="24" height="24" id="cancel" x="168" y="204" xmlns="http://www.w3.org/2000/svg"><title>cancel</title><path d="M12 2a10 10 0 1 0 10 10A10 10 0 0 0 12 2zm5 13.59L15.59 17 12 13.41 8.41 17 7 15.59 10.59 12 7 8.41 8.41 7 12 10.59 15.59 7 17 8.41 13.41 12z" fill="#bc3644"/><path d="M0 0h24v24H0z" fill="none"/></svg><svg viewBox="0 0 24 24" width="24" height="24" id="cancel-alt" x="192" y="204" xmlns="http://www.w3.org/2000/svg"><title>cancel-alt</title><path d="M12 2a10 10 0 1 0 10 10A10 10 0 0 0 12 2zm5 13.59L15.59 17 12 13.41 8.41 17 7 15.59 10.59 12 7 8.41 8.41 7 12 10.59 15.59 7 17 8.41 13.41 12z" fill="#fff"/><path d="M0 0h24v24H0z" fill="none"/></svg><svg viewBox="0 0 24 24" width="24" height="24" id="cancel-dark" x="228" xmlns="http://www.w3.org/2000/svg"><title>cancel-dark</title><path d="M12 2a10 10 0 1 0 10 10A10 10 0 0 0 12 2zm5 13.59L15.59 17 12 13.41 8.41 17 7 15.59 10.59 12 7 8.41 8.41 7 12 10.59 15.59 7 17 8.41 13.41 12z" fill="#434a4f"/><path d="M0 0h24v24H0z" fill="none"/></svg><svg viewBox="0 0 24 24" width="24" height="24" id="cancel-light" x="228" y="24" xmlns="http://www.w3.org/2000/svg"><title>cancel-light</title><path d="M12 2a10 10 0 1 0 10 10A10 10 0 0 0 12 2zm5 13.59L15.59 17 12 13.41 8.41 17 7 15.59 10.59 12 7 8.41 8.41 7 12 10.59 15.59 7 17 8.41 13.41 12z" fill="#fff"/><path d="M0 0h24v24H0z" fill="none"/></svg><svg viewBox="0 0 24 24" width="24" height="24" id="cc" x="228" y="48" xmlns="http://www.w3.org/2000/svg"><title>cc</title><path d="M0 0h24v24H0z" fill="none"/><path d="M19 4H5a2 2 0 0 0-2 2v12a2 2 0 0 0 2 2h14a2 2 0 0 0 2-2V6a2 2 0 0 0-2-2zm-8 7H9.5v-.5h-2v3h2V13H11v1a1 1 0 0 1-1 1H7a1 1 0 0 1-1-1v-4a1 1 0 0 1 1-1h3a1 1 0 0 1 1 1zm7 0h-1.5v-.5h-2v3h2V13H18v1a1 1 0 0 1-1 1h-3a1 1 0 0 1-1-1v-4a1 1 0 0 1 1-1h3a1 1 0 0 1 1 1z" fill="#434a4f"/></svg><svg viewBox="0 0 24 24" width="24" height="24" id="cc-alt" x="228" y="72" xmlns="http://www.w3.org/2000/svg"><title>cc-alt</title><path d="M0 0h24v24H0z" fill="none"/><path d="M19 4H5a2 2 0 0 0-2 2v12a2 2 0 0 0 2 2h14a2 2 0 0 0 2-2V6a2 2 0 0 0-2-2zm-8 7H9.5v-.5h-2v3h2V13H11v1a1 1 0 0 1-1 1H7a1 1 0 0 1-1-1v-4a1 1 0 0 1 1-1h3a1 1 0 0 1 1 1zm7 0h-1.5v-.5h-2v3h2V13H18v1a1 1 0 0 1-1 1h-3a1 1 0 0 1-1-1v-4a1 1 0 0 1 1-1h3a1 1 0 0 1 1 1z" fill="#fff"/></svg><svg viewBox="0 0 24 24" width="24" height="24" id="check" x="228" y="96" xmlns="http://www.w3.org/2000/svg"><title>check</title><path d="M0 0h24v24H0z" fill="none"/><path d="M12 2a10 10 0 1 0 10 10A10 10 0 0 0 12 2zm-1 14.5L6.5 12l1.41-1.41L11 13.67l5.59-5.58L18 9.5z" fill="#7db448"/></svg><svg id="check-correct" viewBox="0 0 24 24" width="24" height="24" x="228" y="120" xmlns="http://www.w3.org/2000/svg"><style>.bbst0{fill:none}.bbst1{fill:#7db448}</style><title>check-correct</title><path class="bbst0" d="M0 0h24v24H0V0z"/><path class="bbst1" d="M9.8 15.1L6.6 12l-1.1 1.1 4.2 4.2 9-9-1.1-1.1-7.8 7.9z"/></svg><svg viewBox="0 0 24 24" width="24" height="24" id="check-dark" x="228" y="144" xmlns="http://www.w3.org/2000/svg"><title>check-dark</title><path d="M0 0h24v24H0z" fill="none"/><path d="M12 2a10 10 0 1 0 10 10A10 10 0 0 0 12 2zm-1 14.5L6.5 12l1.41-1.41L11 13.67l5.59-5.58L18 9.5z" fill="#434a4f"/></svg><svg viewBox="0 0 24 24" width="24" height="24" id="check-dis" x="228" y="168" xmlns="http://www.w3.org/2000/svg"><title>check-dis</title><path d="M0 0h24v24H0z" fill="none"/><path d="M12 2a10 10 0 1 0 10 10A10 10 0 0 0 12 2zm-1 14.5L6.5 12l1.41-1.41L11 13.67l5.59-5.58L18 9.5z" fill="#91999f"/></svg><svg viewBox="0 0 84 84" width="84" height="84" id="check-lg" xmlns="http://www.w3.org/2000/svg"><title>check-lg</title><path d="M0 0h84v84H0z" fill="none"/><path d="M42 7A35 35 0 1 1 7 42 35 35 0 0 1 42 7m0 4a31 31 0 1 0 31 31 31 31 0 0 0-31-31" fill="#8ec33e"/><path fill="none" stroke="#8ec33e" stroke-miterlimit="10" stroke-width="4" d="M25.5 42.5l11 11 23.86-23.86"/></svg><svg viewBox="0 0 24 24" width="24" height="24" id="check-light" y="228" xmlns="http://www.w3.org/2000/svg"><title>check-light</title><path d="M0 0h24v24H0z" fill="none"/><path d="M12 2a10 10 0 1 0 10 10A10 10 0 0 0 12 2zm-1 14.5L6.5 12l1.41-1.41L11 13.67l5.59-5.58L18 9.5z" fill="#fff"/></svg><svg viewBox="0 0 24 24" width="24" height="24" id="check-ol" x="24" y="228" xmlns="http://www.w3.org/2000/svg"><title>check-ol</title><path d="M0 0h24v24H0z" fill="none"/><path d="M12 2A10 10 0 1 1 2 12 10 10 0 0 1 12 2m0 2a8 8 0 1 0 8 8 8 8 0 0 0-8-8m-1 12.5L6.5 12l1.41-1.41L11 13.67l5.59-5.58L18 9.5z" fill="#7db448"/></svg><svg viewBox="0 0 24 24" width="24" height="24" id="check-ol-dark" x="48" y="228" xmlns="http://www.w3.org/2000/svg"><title>check-ol-dark</title><path d="M0 0h24v24H0z" fill="none"/><path d="M12 2A10 10 0 1 1 2 12 10 10 0 0 1 12 2m0 2a8 8 0 1 0 8 8 8 8 0 0 0-8-8m-1 12.5L6.5 12l1.41-1.41L11 13.67l5.59-5.58L18 9.5z" fill="#434a4f"/></svg><svg viewBox="0 0 24 24" width="24" height="24" id="check-ol-dis" x="72" y="228" xmlns="http://www.w3.org/2000/svg"><title>check-ol-dis</title><path d="M0 0h24v24H0z" fill="none"/><path d="M12 2A10 10 0 1 1 2 12 10 10 0 0 1 12 2m0 2a8 8 0 1 0 8 8 8 8 0 0 0-8-8m-1 12.5L6.5 12l1.41-1.41L11 13.67l5.59-5.58L18 9.5z" fill="#91999f"/></svg><svg viewBox="0 0 24 24" width="24" height="24" id="check-ol-empty" x="96" y="228" xmlns="http://www.w3.org/2000/svg"><title>check-ol-empty</title><path d="M0 0h24v24H0z" fill="none"/><path d="M12 2A10 10 0 1 1 2 12 10 10 0 0 1 12 2m0 2a8 8 0 1 0 8 8 8 8 0 0 0-8-8" fill="#7db448"/></svg><svg viewBox="0 0 24 24" width="24" height="24" id="check-ol-light" x="120" y="228" xmlns="http://www.w3.org/2000/svg"><title>check-ol-light</title><path d="M0 0h24v24H0z" fill="none"/><path d="M12 2A10 10 0 1 1 2 12 10 10 0 0 1 12 2m0 2a8 8 0 1 0 8 8 8 8 0 0 0-8-8m-1 12.5L6.5 12l1.41-1.41L11 13.67l5.59-5.58L18 9.5z" fill="#fff"/></svg><svg viewBox="0 0 18 18" width="18" height="18" id="check-small" x="324" y="138" xmlns="http://www.w3.org/2000/svg"><title>check-small</title><path d="M0 0h18v18H0z" fill="none"/><path d="M6.75 12.13L3.62 9l-1.06 1.06 4.19 4.19 9-9-1.06-1.06z" fill="#7db448"/></svg><svg viewBox="0 0 18 18" width="18" height="18" id="check-small-dark" x="324" y="120" xmlns="http://www.w3.org/2000/svg"><title>check-small-dark</title><path d="M0 0h18v18H0z" fill="none"/><path d="M6.75 12.13L3.62 9l-1.06 1.06 4.19 4.19 9-9-1.06-1.06z" fill="#434a4f"/></svg><svg viewBox="0 0 18 18" width="18" height="18" id="check-small-light" x="324" y="102" xmlns="http://www.w3.org/2000/svg"><title>check-small-light</title><path d="M0 0h18v18H0z" fill="none"/><path d="M6.75 12.13L3.62 9l-1.06 1.06 4.19 4.19 9-9-1.06-1.06z" fill="#fff"/></svg><svg viewBox="0 0 24 24" width="24" height="24" id="checkbox" x="216" y="228" xmlns="http://www.w3.org/2000/svg"><title>checkbox</title><path d="M20 4v16H4V4h16m0-1H4a1 1 0 0 0-1 1v16a1 1 0 0 0 1 1h16a1 1 0 0 0 1-1V4a1 1 0 0 0-1-1z" fill="#7db448"/><path d="M0 0h24v24H0z" fill="none"/></svg><svg viewBox="0 0 24 24" width="24" height="24" id="checkbox-alt" x="252" xmlns="http://www.w3.org/2000/svg"><title>checkbox-alt</title><path d="M20 4v16H4V4h16m0-1H4a1 1 0 0 0-1 1v16a1 1 0 0 0 1 1h16a1 1 0 0 0 1-1V4a1 1 0 0 0-1-1z" fill="#fff"/><path d="M0 0h24v24H0z" fill="none"/></svg><svg viewBox="0 0 24 24" width="24" height="24" id="checkbox-chk" x="252" y="24" xmlns="http://www.w3.org/2000/svg"><title>checkbox-chk</title><path d="M0 0h24v24H0z" fill="none"/><path d="M19.94 3.06H4.06a1 1 0 0 0-1 1v15.88a1 1 0 0 0 1 1h15.88a1 1 0 0 0 1-1V4.06a1 1 0 0 0-1-1zM11 16.5L6.5 12l1.41-1.41L11 13.67l5.59-5.58L18 9.5z" fill="#7db448"/></svg><svg viewBox="0 0 24 24" width="24" height="24" id="checkbox-chk-alt" x="252" y="48" xmlns="http://www.w3.org/2000/svg"><title>checkbox-chk-alt</title><path d="M0 0h24v24H0z" fill="none"/><path d="M21 20V4a1 1 0 0 0-1-1H4a1 1 0 0 0-1 1v16a1 1 0 0 0 1 1h16a1 1 0 0 0 1-1zm-11-3l-5-5 1.41-1.41L10 14.17l7.59-7.59L19 8z" fill="#fff"/></svg><svg viewBox="0 0 24 24" width="24" height="24" id="checkbox-chk-dis" x="252" y="72" xmlns="http://www.w3.org/2000/svg"><title>checkbox-chk-dis</title><path d="M0 0h24v24H0z" fill="none"/><path d="M21 20V4a1 1 0 0 0-1-1H4a1 1 0 0 0-1 1v16a1 1 0 0 0 1 1h16a1 1 0 0 0 1-1zm-11-3l-5-5 1.41-1.41L10 14.17l7.59-7.59L19 8z" fill="#787f85"/></svg><svg viewBox="0 0 24 24" width="24" height="24" id="checkbox-dis" x="252" y="96" xmlns="http://www.w3.org/2000/svg"><title>checkbox-dis</title><path d="M0 0h24v24H0z" fill="none"/><path d="M4 5v14a1 1 0 0 0 1 1h14a1 1 0 0 0 1-1V5a1 1 0 0 0-1-1H5a1 1 0 0 0-1 1zm15 14H5V5h14z" fill="#91999f"/></svg><svg viewBox="0 0 24 24" width="24" height="24" id="close" x="252" y="120" xmlns="http://www.w3.org/2000/svg"><title>close</title><path d="M19 6.41L17.59 5 12 10.59 6.41 5 5 6.41 10.59 12 5 17.59 6.41 19 12 13.41 17.59 19 19 17.59 13.41 12z" fill="#434a4f"/><path d="M0 0h24v24H0z" fill="none"/></svg><svg viewBox="0 0 24 24" width="24" height="24" id="close-alt" x="252" y="144" xmlns="http://www.w3.org/2000/svg"><title>close-alt</title><path d="M19 6.41L17.59 5 12 10.59 6.41 5 5 6.41 10.59 12 5 17.59 6.41 19 12 13.41 17.59 19 19 17.59 13.41 12z" fill="#fff"/><path d="M0 0h24v24H0z" fill="none"/></svg><svg viewBox="0 0 18 18" width="18" height="18" id="copy" x="324" y="84" xmlns="http://www.w3.org/2000/svg"><title>copy</title><path d="M0 0h18v18H0z" fill="none"/><path d="M12 .75H3a1.5 1.5 0 0 0-1.5 1.5v10.5H3V2.25h9zm2.25 3H6a1.5 1.5 0 0 0-1.5 1.5v10.5a1.5 1.5 0 0 0 1.5 1.5h8.25a1.5 1.5 0 0 0 1.5-1.5V5.25a1.5 1.5 0 0 0-1.5-1.5zm0 12H6V5.25h8.25z" fill="#434a4f"/></svg><svg viewBox="0 0 18 18" width="18" height="18" id="copy-light" x="324" y="66" xmlns="http://www.w3.org/2000/svg"><title>copy-light</title><path d="M0 0h18v18H0z" fill="none"/><path d="M12 .75H3a1.5 1.5 0 0 0-1.5 1.5v10.5H3V2.25h9zm2.25 3H6a1.5 1.5 0 0 0-1.5 1.5v10.5a1.5 1.5 0 0 0 1.5 1.5h8.25a1.5 1.5 0 0 0 1.5-1.5V5.25a1.5 1.5 0 0 0-1.5-1.5zm0 12H6V5.25h8.25z" fill="#fff"/></svg><svg viewBox="0 0 24 24" width="24" height="24" id="correct" x="252" y="216" xmlns="http://www.w3.org/2000/svg"><title>correct</title><path d="M0 0h24v24H0z" fill="none"/><path d="M9.75 15.13L6.62 12l-1.06 1.06 4.19 4.19 9-9-1.06-1.06z" fill="#89c348"/></svg><svg viewBox="0 0 24 24" width="24" height="24" id="edit-alt" y="252" xmlns="http://www.w3.org/2000/svg"><title>edit-alt</title><path d="M5.25 15.94v2.81h2.81l8.29-8.3-2.81-2.81zm13.28-7.66a.75.75 0 0 0 0-1.06l-1.75-1.75a.75.75 0 0 0-1.06 0l-1.37 1.37 2.81 2.81z" fill="#bc3644"/><path d="M0 0h24v24H0z" fill="none"/></svg><svg viewBox="0 0 24 24" width="24" height="24" id="error" x="24" y="252" xmlns="http://www.w3.org/2000/svg"><title>error</title><path d="M0 0h24v24H0z" fill="none"/><path d="M12 2a10 10 0 1 0 10 10A10 10 0 0 0 12 2zm1 15h-2v-2h2zm0-4h-2V7h2z" fill="#bc3644"/></svg><svg viewBox="0 0 24 24" width="24" height="24" id="error-alt" x="48" y="252" xmlns="http://www.w3.org/2000/svg"><title>error-alt</title><path d="M0 0h24v24H0z" fill="none"/><path d="M12 2a10 10 0 1 0 10 10A10 10 0 0 0 12 2zm1 15h-2v-2h2zm0-4h-2V7h2z" fill="#434a4f"/></svg><svg viewBox="0 0 24 24" width="24" height="24" id="error-light" x="72" y="252" xmlns="http://www.w3.org/2000/svg"><title>error-light</title><path d="M0 0h24v24H0z" fill="none"/><path d="M12 2a10 10 0 1 0 10 10A10 10 0 0 0 12 2zm1 15h-2v-2h2zm0-4h-2V7h2z" fill="#fff"/></svg><svg viewBox="0 0 24 24" width="24" height="24" id="flip" x="96" y="252" xmlns="http://www.w3.org/2000/svg"><title>flip</title><path d="M0 0h24v24H0z" fill="none"/><path d="M15 21h2v-2h-2zm4-12h2V7h-2zM3 5v14a2 2 0 0 0 2 2h4v-2H5V5h4V3H5a2 2 0 0 0-2 2zm16-2v2h2a2 2 0 0 0-2-2zm-8 20h2V1h-2zm8-6h2v-2h-2zM15 5h2V3h-2zm4 8h2v-2h-2zm0 8a2 2 0 0 0 2-2h-2z" fill="#92999f"/></svg><svg viewBox="0 0 24 24" width="24" height="24" id="flip-dark" x="120" y="252" xmlns="http://www.w3.org/2000/svg"><title>flip-dark</title><path d="M0 0h24v24H0z" fill="none"/><path d="M15 21h2v-2h-2zm4-12h2V7h-2zM3 5v14a2 2 0 0 0 2 2h4v-2H5V5h4V3H5a2 2 0 0 0-2 2zm16-2v2h2a2 2 0 0 0-2-2zm-8 20h2V1h-2zm8-6h2v-2h-2zM15 5h2V3h-2zm4 8h2v-2h-2zm0 8a2 2 0 0 0 2-2h-2z" fill="#444a50"/></svg><svg viewBox="0 0 24 24" width="24" height="24" id="flip-light" x="144" y="252" xmlns="http://www.w3.org/2000/svg"><title>flip-light</title><path d="M0 0h24v24H0z" fill="none"/><path d="M15 21h2v-2h-2zm4-12h2V7h-2zM3 5v14a2 2 0 0 0 2 2h4v-2H5V5h4V3H5a2 2 0 0 0-2 2zm16-2v2h2a2 2 0 0 0-2-2zm-8 20h2V1h-2zm8-6h2v-2h-2zM15 5h2V3h-2zm4 8h2v-2h-2zm0 8a2 2 0 0 0 2-2h-2z" fill="#fff"/></svg><svg viewBox="0 0 24 24" width="24" height="24" id="fullscreen" x="168" y="252" xmlns="http://www.w3.org/2000/svg"><title>fullscreen</title><path d="M0 0h24v24H0z" fill="none"/><path d="M7 14H5v5h5v-2H7zm-2-4h2V7h3V5H5zm12 7h-3v2h5v-5h-2zM14 5v2h3v3h2V5z" fill="#434a4f"/></svg><svg viewBox="0 0 24 24" width="24" height="24" id="fullscreen-alt" x="120" y="156" xmlns="http://www.w3.org/2000/svg"><title>fullscreen-alt</title><path d="M0 0h24v24H0z" fill="none"/><path d="M7 14H5v5h5v-2H7zm-2-4h2V7h3V5H5zm12 7h-3v2h5v-5h-2zM14 5v2h3v3h2V5z" fill="#fff"/></svg><svg viewBox="0 0 24 24" width="24" height="24" id="fullscreen-exit" x="216" y="252" xmlns="http://www.w3.org/2000/svg"><title>fullscreen-exit</title><path d="M0 0h24v24H0z" fill="none"/><path d="M5 16h3v3h2v-5H5zm3-8H5v2h5V5H8zm6 11h2v-3h3v-2h-5zm2-11V5h-2v5h5V8z" fill="#434a4f"/></svg><svg viewBox="0 0 24 24" width="24" height="24" id="fullscreen-exit-alt" x="240" y="252" xmlns="http://www.w3.org/2000/svg"><title>fullscreen-exit-alt</title><path d="M0 0h24v24H0z" fill="none"/><path d="M5 16h3v3h2v-5H5zm3-8H5v2h5V5H8zm6 11h2v-3h3v-2h-5zm2-11V5h-2v5h5V8z" fill="#fff"/></svg><svg viewBox="0 0 24 24" width="24" height="24" id="help" x="276" xmlns="http://www.w3.org/2000/svg"><title>help</title><path d="M0 0h24v24H0z" fill="none"/><path d="M0 0h24v24H0z" fill="none"/><path d="M11 18h2v-2h-2zm1-16a10 10 0 1 0 10 10A10 10 0 0 0 12 2zm0 18a8 8 0 1 1 8-8 8 8 0 0 1-8 8zm0-14a4 4 0 0 0-4 4h2a2 2 0 0 1 4 0c0 2-3 1.8-3 5h2c0-2.3 3-2.5 3-5a4 4 0 0 0-4-4z" fill="#89c348"/></svg><svg viewBox="0 0 24 24" width="24" height="24" id="help-hov" x="276" y="24" xmlns="http://www.w3.org/2000/svg"><title>help-hov</title><path d="M0 0h24v24H0z" fill="none"/><path d="M0 0h24v24H0z" fill="none"/><path d="M11 18h2v-2h-2zm1-16a10 10 0 1 0 10 10A10 10 0 0 0 12 2zm0 18a8 8 0 1 1 8-8 8 8 0 0 1-8 8zm0-14a4 4 0 0 0-4 4h2a2 2 0 0 1 4 0c0 2-3 1.8-3 5h2c0-2.3 3-2.5 3-5a4 4 0 0 0-4-4z" fill="#fff"/></svg><svg viewBox="0 0 24 24" width="24" height="24" id="info" x="276" y="48" xmlns="http://www.w3.org/2000/svg"><title>info</title><path d="M0 0h24v24H0z" fill="none"/><path d="M12 2a10 10 0 1 0 10 10A10 10 0 0 0 12 2zm1 15h-2v-6h2zm0-8h-2V7h2z" fill="#366bad"/><path d="M0 0h24v24H0z" fill="none"/></svg><svg viewBox="0 0 24 24" width="24" height="24" id="info-alt" x="276" y="72" xmlns="http://www.w3.org/2000/svg"><title>info-alt</title><path d="M0 0h24v24H0z" fill="none"/><path d="M12 2a10 10 0 1 0 10 10A10 10 0 0 0 12 2zm1 15h-2v-6h2zm0-8h-2V7h2z" fill="#fff"/><path d="M0 0h24v24H0z" fill="none"/></svg><svg viewBox="0 0 24 24" width="24" height="24" id="info-dark" x="276" y="96" xmlns="http://www.w3.org/2000/svg"><title>info-dark</title><path d="M0 0h24v24H0z" fill="none"/><path d="M12 2a10 10 0 1 0 10 10A10 10 0 0 0 12 2zm1 15h-2v-6h2zm0-8h-2V7h2z" fill="#434a4f"/><path d="M0 0h24v24H0z" fill="none"/></svg><svg viewBox="0 0 24 24" width="24" height="24" id="info-ol" x="276" y="120" xmlns="http://www.w3.org/2000/svg"><title>info-ol</title><path d="M0 0h24v24H0z" fill="none"/><path d="M0 0h24v24H0z" fill="none"/><path d="M12 4a8 8 0 1 1-8 8 8 8 0 0 1 8-8m0-2a10 10 0 1 0 10 10A10 10 0 0 0 12 2z" fill="#89c348"/><path fill="#89c348" d="M11 11h2v6h-2zM11 7h2v2h-2z"/></svg><svg viewBox="0 0 24 24" width="24" height="24" id="info-ol-light" x="276" y="144" xmlns="http://www.w3.org/2000/svg"><title>info-ol-light</title><path d="M0 0h24v24H0z" fill="none"/><path d="M0 0h24v24H0z" fill="none"/><path d="M12 4a8 8 0 1 1-8 8 8 8 0 0 1 8-8m0-2a10 10 0 1 0 10 10A10 10 0 0 0 12 2z" fill="#fff"/><path fill="#fff" d="M11 11h2v6h-2zM11 7h2v2h-2z"/></svg><svg viewBox="0 0 24 24" width="24" height="24" id="instruct" x="276" y="168" xmlns="http://www.w3.org/2000/svg"><title>instruct</title><path d="M0 0h24v24H0z" fill="none"/><path d="M19 1H5a2 2 0 0 0-2 2v12.93a2 2 0 0 0 .88 1.66L12 23l8.11-5.41a2 2 0 0 0 .89-1.66V3a2 2 0 0 0-2-2zm-9 15l-5-5 1.41-1.41L10 13.17l7.59-7.59L19 7z" fill="#7db448"/></svg><svg viewBox="0 0 48 48" width="48" height="48" id="instruct-lg" x="72" y="156" xmlns="http://www.w3.org/2000/svg"><title>instruct-lg</title><path d="M0 0h48v48H0z" fill="none"/><path d="M38 2H10a4 4 0 0 0-4 4v25.86a4 4 0 0 0 1.76 3.32L24 46l16.22-10.82A4 4 0 0 0 42 31.86V6a4 4 0 0 0-4-4zM20 32L10 22l2.82-2.82L20 26.34l15.18-15.18L38 14z" fill="#7db448"/></svg><svg viewBox="0 0 24 24" width="24" height="24" id="key-alt" x="276" y="216" xmlns="http://www.w3.org/2000/svg"><title>key-alt</title><path d="M0 0h24v24H0z" fill="none"/><path d="M12.65 10a6 6 0 1 0 0 4H17v4h4v-4h2v-4zM7 14a2 2 0 1 1 2-2 2 2 0 0 1-2 2z" fill="#fff"/></svg><svg viewBox="0 0 24 24" width="24" height="24" id="label" x="276" y="240" xmlns="http://www.w3.org/2000/svg"><title>label</title><path d="M0 0h24v24H0z" fill="none"/><path d="M17.63 5.84A2 2 0 0 0 16 5H5a2 2 0 0 0-2 2v10a2 2 0 0 0 2 2h11a2 2 0 0 0 1.63-.84L22 12zM16 17H5V7h11l3.55 5z" fill="#7db448"/></svg><svg viewBox="0 0 24 24" width="24" height="24" id="launch" y="276" xmlns="http://www.w3.org/2000/svg"><title>launch</title><path d="M0 0h24v24H0z" fill="none"/><path d="M0 0h24v24H0z" fill="none"/><path d="M0 0h24v24H0z" fill="none"/><path d="M19 19H5V5h7V3H5a2 2 0 0 0-2 2v14a2 2 0 0 0 2 2h14a2 2 0 0 0 2-2v-7h-2zM14 3v2h3.59l-9.83 9.83 1.41 1.41L19 6.41V10h2V3z" fill="#366bad"/></svg><svg viewBox="0 0 24 24" width="24" height="24" id="launch-alt" x="24" y="276" xmlns="http://www.w3.org/2000/svg"><title>launch-alt</title><path d="M0 0h24v24H0z" fill="none"/><path d="M0 0h24v24H0z" fill="none"/><path d="M0 0h24v24H0z" fill="none"/><path d="M19 19H5V5h7V3H5a2 2 0 0 0-2 2v14a2 2 0 0 0 2 2h14a2 2 0 0 0 2-2v-7h-2zM14 3v2h3.59l-9.83 9.83 1.41 1.41L19 6.41V10h2V3z" fill="#fff"/></svg><svg viewBox="0 0 24 24" width="24" height="24" id="launch-dark" x="48" y="276" xmlns="http://www.w3.org/2000/svg"><title>launch-dark</title><path d="M0 0h24v24H0z" fill="none"/><path d="M0 0h24v24H0z" fill="none"/><path d="M0 0h24v24H0z" fill="none"/><path d="M19 19H5V5h7V3H5a2 2 0 0 0-2 2v14a2 2 0 0 0 2 2h14a2 2 0 0 0 2-2v-7h-2zM14 3v2h3.59l-9.83 9.83 1.41 1.41L19 6.41V10h2V3z" fill="#434a4f"/></svg><svg viewBox="0 0 18 18" width="18" height="18" id="launch-small" x="324" y="48" xmlns="http://www.w3.org/2000/svg"><title>launch-small</title><path d="M0 0h18v18H0z" fill="none"/><path d="M13.67 13.67H4.33V4.33H9V3H4.33A1.33 1.33 0 0 0 3 4.33v9.33A1.33 1.33 0 0 0 4.33 15h9.33A1.34 1.34 0 0 0 15 13.67V9h-1.33zM10.33 3v1.33h2.39l-6.55 6.56.94.94 6.55-6.55v2.39H15V3z" fill="#366bad"/></svg><svg viewBox="0 0 24 24" width="24" height="24" id="link" x="96" y="276" xmlns="http://www.w3.org/2000/svg"><title>link</title><path d="M0 0h24v24H0z" fill="none"/><path d="M3.9 12A3.1 3.1 0 0 1 7 8.9h4V7H7a5 5 0 0 0 0 10h4v-1.9H7A3.1 3.1 0 0 1 3.9 12zM8 13h8v-2H8zm9-6h-4v1.9h4a3.1 3.1 0 0 1 0 6.2h-4V17h4a5 5 0 0 0 0-10z" fill="#366bad"/></svg><svg viewBox="0 0 24 24" width="24" height="24" id="link-alt" x="120" y="276" xmlns="http://www.w3.org/2000/svg"><title>link-alt</title><path d="M0 0h24v24H0z" fill="none"/><path d="M3.9 12A3.1 3.1 0 0 1 7 8.9h4V7H7a5 5 0 0 0 0 10h4v-1.9H7A3.1 3.1 0 0 1 3.9 12zM8 13h8v-2H8zm9-6h-4v1.9h4a3.1 3.1 0 0 1 0 6.2h-4V17h4a5 5 0 0 0 0-10z" fill="#fff"/></svg><svg viewBox="0 0 72 72" width="72" height="72" id="loading" y="84" xmlns="http://www.w3.org/2000/svg"><title>loading</title><path d="M0 0h72v72H0z" fill="none"/><circle cx="36" cy="9.5" r="3.5" fill="#434a4f"/><circle cx="36" cy="62.5" r="3.5" fill="#434a4f" opacity=".46"/><circle cx="49.25" cy="58.95" r="3.5" transform="rotate(-30 49.243 58.955)" fill="#434a4f" opacity=".55"/><circle cx="13.05" cy="22.75" r="3.5" transform="rotate(-60 13.051 22.754)" fill="#434a4f" opacity=".1"/><circle cx="58.95" cy="49.25" r="3.5" transform="rotate(-60 58.95 49.254)" fill="#434a4f" opacity=".64"/><circle cx="9.5" cy="36" r="3.5" fill="#434a4f" opacity=".19"/><circle cx="62.5" cy="36" r="3.5" fill="#434a4f" opacity=".73"/><circle cx="13.05" cy="49.25" r="3.5" transform="rotate(-30 13.042 49.255)" fill="#434a4f" opacity=".28"/><circle cx="58.95" cy="22.75" r="3.5" transform="rotate(-30 58.943 22.754)" fill="#434a4f" opacity=".82"/><circle cx="22.75" cy="58.95" r="3.5" transform="rotate(-60 22.751 58.954)" fill="#434a4f" opacity=".37"/><circle cx="49.25" cy="13.05" r="3.5" transform="rotate(-60 49.251 13.055)" fill="#434a4f" opacity=".91"/></svg><svg viewBox="0 0 72 72" width="72" height="72" id="loading-alt" x="72" y="84" xmlns="http://www.w3.org/2000/svg"><title>loading-alt</title><path d="M0 0h72v72H0z" fill="none"/><circle cx="36" cy="9.5" r="3.5" fill="#fff"/><circle cx="36" cy="62.5" r="3.5" fill="#fff" opacity=".46"/><circle cx="49.25" cy="58.95" r="3.5" transform="rotate(-30 49.243 58.955)" fill="#fff" opacity=".55"/><circle cx="13.05" cy="22.75" r="3.5" transform="rotate(-60 13.051 22.754)" fill="#fff" opacity=".1"/><circle cx="58.95" cy="49.25" r="3.5" transform="rotate(-60 58.95 49.254)" fill="#fff" opacity=".64"/><circle cx="9.5" cy="36" r="3.5" fill="#fff" opacity=".19"/><circle cx="62.5" cy="36" r="3.5" fill="#fff" opacity=".73"/><circle cx="13.05" cy="49.25" r="3.5" transform="rotate(-30 13.042 49.255)" fill="#fff" opacity=".28"/><circle cx="58.95" cy="22.75" r="3.5" transform="rotate(-30 58.943 22.754)" fill="#fff" opacity=".82"/><circle cx="22.75" cy="58.95" r="3.5" transform="rotate(-60 22.751 58.954)" fill="#fff" opacity=".37"/><circle cx="49.25" cy="13.05" r="3.5" transform="rotate(-60 49.251 13.055)" fill="#fff" opacity=".91"/></svg><svg viewBox="0 0 24 24" width="24" height="24" id="loop" x="192" y="276" xmlns="http://www.w3.org/2000/svg"><title>loop</title><path d="M12 4V1L8 5l4 4V6a6 6 0 0 1 6 6 5.87 5.87 0 0 1-.7 2.8l1.46 1.46A8 8 0 0 0 12 4zm0 14a6 6 0 0 1-6-6 5.87 5.87 0 0 1 .7-2.8L5.24 7.74A8 8 0 0 0 12 20v3l4-4-4-4z" fill="#434a4f"/><path d="M0 0h24v24H0z" fill="none"/></svg><svg viewBox="0 0 24 24" width="24" height="24" id="loop-alt" x="216" y="276" xmlns="http://www.w3.org/2000/svg"><title>loop-alt</title><path d="M12 4V1L8 5l4 4V6a6 6 0 0 1 6 6 5.87 5.87 0 0 1-.7 2.8l1.46 1.46A8 8 0 0 0 12 4zm0 14a6 6 0 0 1-6-6 5.87 5.87 0 0 1 .7-2.8L5.24 7.74A8 8 0 0 0 12 20v3l4-4-4-4z" fill="#fff"/><path d="M0 0h24v24H0z" fill="none"/></svg><svg viewBox="0 0 24 24" width="24" height="24" id="menu" x="240" y="276" xmlns="http://www.w3.org/2000/svg"><title>menu</title><path d="M24 24H0V0h24z" fill="none"/><path d="M3 18h18v-2H3zm0-5h18v-2H3zm0-7v2h18V6z" fill="#89c348"/></svg><svg viewBox="0 0 24 24" width="24" height="24" id="menu-hov" x="264" y="276" xmlns="http://www.w3.org/2000/svg"><title>menu-hov</title><path d="M24 24H0V0h24z" fill="none"/><path d="M3 18h18v-2H3zm0-5h18v-2H3zm0-7v2h18V6z" fill="#fff"/></svg><svg viewBox="0 0 24 24" width="24" height="24" id="note-alt" x="300" xmlns="http://www.w3.org/2000/svg"><title>note-alt</title><path d="M2 12.5A5.5 5.5 0 0 1 7.5 7H18a4 4 0 0 1 0 8H9.5a2.5 2.5 0 0 1 0-5H17v2H9.41c-.55 0-.55 1 0 1H18a2 2 0 0 0 0-4H7.5a3.5 3.5 0 0 0 0 7H17v2H7.5A5.5 5.5 0 0 1 2 12.5z" fill="#fff"/><path d="M0 0h24v24H0z" fill="none"/></svg><svg viewBox="0 0 24 24" width="24" height="24" id="pause" x="300" y="24" xmlns="http://www.w3.org/2000/svg"><title>pause</title><path d="M6 19h4V5H6zm8-14v14h4V5z" fill="#434a4f"/><path d="M0 0h24v24H0z" fill="none"/></svg><svg viewBox="0 0 24 24" width="24" height="24" id="pause-alt" x="300" y="48" xmlns="http://www.w3.org/2000/svg"><title>pause-alt</title><path d="M6 19h4V5H6zm8-14v14h4V5z" fill="#fff"/><path d="M0 0h24v24H0z" fill="none"/></svg><svg viewBox="0 0 24 24" width="24" height="24" id="play" x="300" y="72" xmlns="http://www.w3.org/2000/svg"><title>play</title><path d="M8 5v14l11-7z" fill="#434a4f"/><path d="M0 0h24v24H0z" fill="none"/></svg><svg viewBox="0 0 24 24" width="24" height="24" id="play-alt" x="300" y="96" xmlns="http://www.w3.org/2000/svg"><title>play-alt</title><path d="M8 5v14l11-7z" fill="#fff"/><path d="M0 0h24v24H0z" fill="none"/></svg><svg viewBox="0 0 72 72" width="72" height="72" id="play-lg" x="156" xmlns="http://www.w3.org/2000/svg"><title>play-lg</title><path d="M0 0h72v72H0z" fill="none"/><path d="M36 6a30 30 0 1 0 30 30A30 30 0 0 0 36 6zm-6 43.5v-27L48 36z" fill="#434a4f"/></svg><svg viewBox="0 0 72 72" width="72" height="72" id="play-lg-alt" x="156" y="72" xmlns="http://www.w3.org/2000/svg"><title>play-lg-alt</title><path d="M0 0h72v72H0z" fill="none"/><path d="M36 6a30 30 0 1 0 30 30A30 30 0 0 0 36 6zm-6 43.5v-27L48 36z" fill="#fff"/></svg><svg viewBox="0 0 24 24" width="24" height="24" id="radio" x="300" y="168" xmlns="http://www.w3.org/2000/svg"><title>radio</title><path d="M0 0h24v24H0z" fill="none"/><path d="M12 4a8 8 0 1 1-8 8 8 8 0 0 1 8-8m0-1a9 9 0 1 0 9 9 9 9 0 0 0-9-9z" fill="#91999f"/></svg><svg viewBox="0 0 24 24" width="24" height="24" id="radio-chk" x="300" y="192" xmlns="http://www.w3.org/2000/svg"><title>radio-chk</title><path d="M12 7a5 5 0 1 0 5 5 5 5 0 0 0-5-5zm0-5a10 10 0 1 0 10 10A10 10 0 0 0 12 2zm0 18a8 8 0 1 1 8-8 8 8 0 0 1-8 8z" fill="#787f85"/><path d="M0 0h24v24H0z" fill="none"/></svg><svg viewBox="0 0 24 24" width="24" height="24" id="reference" x="300" y="216" xmlns="http://www.w3.org/2000/svg"><title>reference</title><path d="M17 3H7a2 2 0 0 0-2 2v16l7-3 7 3V5a2 2 0 0 0-2-2zm0 15l-5-2.2L7 18V5h10z" fill="#89c348"/><path d="M0 0h24v24H0z" fill="none"/></svg><svg viewBox="0 0 24 24" width="24" height="24" id="reference-hov" x="300" y="240" xmlns="http://www.w3.org/2000/svg"><title>reference-hov</title><path d="M17 3H7a2 2 0 0 0-2 2v16l7-3 7 3V5a2 2 0 0 0-2-2zm0 15l-5-2.2L7 18V5h10z" fill="#fff"/><path d="M0 0h24v24H0z" fill="none"/></svg><svg viewBox="0 0 24 24" width="24" height="24" id="refresh" x="300" y="264" xmlns="http://www.w3.org/2000/svg"><title>refresh</title><path d="M17.65 6.35A8 8 0 1 0 19.73 14h-2.08A6 6 0 1 1 12 6a5.91 5.91 0 0 1 4.22 1.78L13 11h7V4z" fill="#434a4f"/><path d="M0 0h24v24H0z" fill="none"/></svg><svg viewBox="0 0 24 24" width="24" height="24" id="refresh-alt" y="300" xmlns="http://www.w3.org/2000/svg"><title>refresh-alt</title><path d="M17.65 6.35A8 8 0 1 0 19.73 14h-2.08A6 6 0 1 1 12 6a5.91 5.91 0 0 1 4.22 1.78L13 11h7V4z" fill="#fff"/><path d="M0 0h24v24H0z" fill="none"/></svg><svg viewBox="0 0 24 24" width="24" height="24" id="replay" x="24" y="300" xmlns="http://www.w3.org/2000/svg"><title>replay</title><path d="M0 0h24v24H0z" fill="none"/><path d="M12 5V1L7 6l5 5V7a6 6 0 1 1-6 6H4a8 8 0 1 0 8-8z" fill="#434a4f"/></svg><svg viewBox="0 0 24 24" width="24" height="24" id="replay-alt" x="48" y="300" xmlns="http://www.w3.org/2000/svg"><title>replay-alt</title><path d="M0 0h24v24H0z" fill="none"/><path d="M12 5V1L7 6l5 5V7a6 6 0 1 1-6 6H4a8 8 0 1 0 8-8z" fill="#fff"/></svg><svg viewBox="0 0 24 24" width="24" height="24" id="settings" x="72" y="300" xmlns="http://www.w3.org/2000/svg"><title>settings</title><path d="M0 0h24v24H0z" fill="none"/><path d="M19.43 13a7.79 7.79 0 0 0 .07-1 7.79 7.79 0 0 0-.07-1l2.11-1.65a.5.5 0 0 0 .12-.64l-2-3.46a.5.5 0 0 0-.61-.22l-2.49 1a7.31 7.31 0 0 0-1.69-1l-.38-2.65A.49.49 0 0 0 14 2h-4a.49.49 0 0 0-.49.42l-.38 2.65a7.68 7.68 0 0 0-1.69 1l-2.49-1a.49.49 0 0 0-.61.22l-2 3.46a.49.49 0 0 0 .12.64L4.57 11a7.93 7.93 0 0 0-.07 1 7.93 7.93 0 0 0 .07 1l-2.11 1.63a.5.5 0 0 0-.12.64l2 3.46a.5.5 0 0 0 .61.22l2.49-1a7.31 7.31 0 0 0 1.69 1l.38 2.65a.49.49 0 0 0 .49.4h4a.49.49 0 0 0 .49-.42l.38-2.65a7.68 7.68 0 0 0 1.69-1l2.49 1a.49.49 0 0 0 .61-.22l2-3.46a.5.5 0 0 0-.12-.64zM12 15.5a3.5 3.5 0 1 1 3.5-3.5 3.5 3.5 0 0 1-3.5 3.5z" fill="#434a4f"/></svg><svg viewBox="0 0 24 24" width="24" height="24" id="settings-alt" x="96" y="300" xmlns="http://www.w3.org/2000/svg"><title>settings-alt</title><path d="M0 0h24v24H0z" fill="none"/><path d="M19.43 13a7.79 7.79 0 0 0 .07-1 7.79 7.79 0 0 0-.07-1l2.11-1.65a.5.5 0 0 0 .12-.64l-2-3.46a.5.5 0 0 0-.61-.22l-2.49 1a7.31 7.31 0 0 0-1.69-1l-.38-2.65A.49.49 0 0 0 14 2h-4a.49.49 0 0 0-.49.42l-.38 2.65a7.68 7.68 0 0 0-1.69 1l-2.49-1a.49.49 0 0 0-.61.22l-2 3.46a.49.49 0 0 0 .12.64L4.57 11a7.93 7.93 0 0 0-.07 1 7.93 7.93 0 0 0 .07 1l-2.11 1.63a.5.5 0 0 0-.12.64l2 3.46a.5.5 0 0 0 .61.22l2.49-1a7.31 7.31 0 0 0 1.69 1l.38 2.65a.49.49 0 0 0 .49.4h4a.49.49 0 0 0 .49-.42l.38-2.65a7.68 7.68 0 0 0 1.69-1l2.49 1a.49.49 0 0 0 .61-.22l2-3.46a.5.5 0 0 0-.12-.64zM12 15.5a3.5 3.5 0 1 1 3.5-3.5 3.5 3.5 0 0 1-3.5 3.5z" fill="#fff"/></svg><svg viewBox="0 0 24 24" width="24" height="24" id="skip-back-alt" x="120" y="300" xmlns="http://www.w3.org/2000/svg"><title>skip-back-alt</title><path fill="none" d="M0 0h24v24H0z"/><path d="M12 5V1L7 6l5 5V7a6 6 0 1 1-6 6H4a8 8 0 1 0 8-8z" fill="#fff"/><path d="M10.8 16.13H10v-3.27l-1 .31v-.68l1.77-.63h.09zM15.06 14.36a2.16 2.16 0 0 1-.37 1.35 1.28 1.28 0 0 1-1.07.47 1.29 1.29 0 0 1-1.07-.46 2.1 2.1 0 0 1-.38-1.32v-.79a2.13 2.13 0 0 1 .37-1.36 1.29 1.29 0 0 1 1.07-.46 1.29 1.29 0 0 1 1.07.46 2.09 2.09 0 0 1 .38 1.32zm-.85-.86a1.58 1.58 0 0 0-.14-.77.49.49 0 0 0-.45-.24.48.48 0 0 0-.44.23 1.46 1.46 0 0 0-.15.72v1a1.63 1.63 0 0 0 .14.78.48.48 0 0 0 .46.25.48.48 0 0 0 .45-.24 1.6 1.6 0 0 0 .14-.75z" fill="#fff"/></svg><svg viewBox="0 0 24 24" width="24" height="24" id="skip-fwd" x="144" y="300" xmlns="http://www.w3.org/2000/svg"><title>skip-fwd</title><path fill="none" d="M0 0h24v24H0z"/><path d="M4 13a8 8 0 0 0 16 0h-2a6 6 0 1 1-6-6v4l5-5-5-5v4a8 8 0 0 0-8 8z" fill="#434a4f"/><path d="M10.8 16.13H10v-3.27l-1 .31v-.68l1.77-.63h.09zM15.06 14.36a2.16 2.16 0 0 1-.37 1.35 1.28 1.28 0 0 1-1.07.47 1.29 1.29 0 0 1-1.07-.46 2.1 2.1 0 0 1-.38-1.32v-.79a2.13 2.13 0 0 1 .37-1.36 1.29 1.29 0 0 1 1.07-.46 1.29 1.29 0 0 1 1.07.46 2.09 2.09 0 0 1 .38 1.32zm-.85-.86a1.58 1.58 0 0 0-.14-.77.49.49 0 0 0-.45-.24.48.48 0 0 0-.44.23 1.46 1.46 0 0 0-.15.72v1a1.63 1.63 0 0 0 .14.78.48.48 0 0 0 .46.25.48.48 0 0 0 .45-.24 1.6 1.6 0 0 0 .14-.75z" fill="#434a4f"/></svg><svg viewBox="0 0 24 24" width="24" height="24" id="skip-fwd-alt" x="168" y="300" xmlns="http://www.w3.org/2000/svg"><title>skip-fwd-alt</title><path fill="none" d="M0 0h24v24H0z"/><path d="M4 13a8 8 0 0 0 16 0h-2a6 6 0 1 1-6-6v4l5-5-5-5v4a8 8 0 0 0-8 8z" fill="#fff"/><path d="M10.8 16.13H10v-3.27l-1 .31v-.68l1.77-.63h.09zM15.06 14.36a2.16 2.16 0 0 1-.37 1.35 1.28 1.28 0 0 1-1.07.47 1.29 1.29 0 0 1-1.07-.46 2.1 2.1 0 0 1-.38-1.32v-.79a2.13 2.13 0 0 1 .37-1.36 1.29 1.29 0 0 1 1.07-.46 1.29 1.29 0 0 1 1.07.46 2.09 2.09 0 0 1 .38 1.32zm-.85-.86a1.58 1.58 0 0 0-.14-.77.49.49 0 0 0-.45-.24.48.48 0 0 0-.44.23 1.46 1.46 0 0 0-.15.72v1a1.63 1.63 0 0 0 .14.78.48.48 0 0 0 .46.25.48.48 0 0 0 .45-.24 1.6 1.6 0 0 0 .14-.75z" fill="#fff"/></svg><svg viewBox="0 0 24 24" width="24" height="24" id="skip_back" x="192" y="300" xmlns="http://www.w3.org/2000/svg"><title>skip back</title><path fill="none" d="M0 0h24v24H0z"/><path d="M12 5V1L7 6l5 5V7a6 6 0 1 1-6 6H4a8 8 0 1 0 8-8z" fill="#434a4f"/><path d="M10.8 16.13H10v-3.27l-1 .31v-.68l1.77-.63h.09zM15.06 14.36a2.16 2.16 0 0 1-.37 1.35 1.28 1.28 0 0 1-1.07.47 1.29 1.29 0 0 1-1.07-.46 2.1 2.1 0 0 1-.38-1.32v-.79a2.13 2.13 0 0 1 .37-1.36 1.29 1.29 0 0 1 1.07-.46 1.29 1.29 0 0 1 1.07.46 2.09 2.09 0 0 1 .38 1.32zm-.85-.86a1.58 1.58 0 0 0-.14-.77.49.49 0 0 0-.45-.24.48.48 0 0 0-.44.23 1.46 1.46 0 0 0-.15.72v1a1.63 1.63 0 0 0 .14.78.48.48 0 0 0 .46.25.48.48 0 0 0 .45-.24 1.6 1.6 0 0 0 .14-.75z" fill="#434a4f"/></svg><svg viewBox="0 0 24 24" width="24" height="24" id="star" x="216" y="300" xmlns="http://www.w3.org/2000/svg"><title>star</title><path d="M0 0h24v24H0z" fill="none"/><path fill="#613296" d="M12 16.11l-4.94 3.11 1.42-5.67L4 9.81l5.82-.39L12 4l2.18 5.42 5.82.39-4.48 3.74 1.42 5.67L12 16.11z"/></svg><svg viewBox="0 0 24 24" width="24" height="24" id="star-alt" x="240" y="300" xmlns="http://www.w3.org/2000/svg"><title>star-alt</title><path d="M0 0h24v24H0z" fill="none"/><path fill="#fff" d="M12 16.11l-4.94 3.11 1.42-5.67L4 9.81l5.82-.39L12 4l2.18 5.42 5.82.39-4.48 3.74 1.42 5.67L12 16.11z"/></svg><svg viewBox="0 0 24 24" width="24" height="24" id="stop" x="264" y="300" xmlns="http://www.w3.org/2000/svg"><title>stop</title><path d="M0 0h24v24H0z" fill="none"/><path d="M6 6h12v12H6z" fill="#434a4f"/></svg><svg viewBox="0 0 24 24" width="24" height="24" id="stop-alt" x="288" y="300" xmlns="http://www.w3.org/2000/svg"><title>stop-alt</title><path d="M0 0h24v24H0z" fill="none"/><path d="M6 6h12v12H6z" fill="#fff"/></svg><svg viewBox="0 0 72 72" width="72" height="72" id="thumbs-down" y="156" xmlns="http://www.w3.org/2000/svg"><title>thumbs-down</title><path d="M36 0a36 36 0 1 0 36 36A36 36 0 0 0 36 0z" fill="#bc3644"/><path d="M18 18h36v36H18z" fill="none"/><path d="M40.5 22.5H27a3 3 0 0 0-2.76 1.83l-4.53 10.58A3 3 0 0 0 19.5 36v3a3 3 0 0 0 3 3H32l-1.42 6.85v.48a2.26 2.26 0 0 0 .66 1.59l1.59 1.58 9.89-9.89a3 3 0 0 0 .87-2.11v-15a3 3 0 0 0-3-3zm6 0v18h6v-18z" fill="#fff"/></svg><svg viewBox="0 0 72 72" width="72" height="72" id="thumbs-up" x="84" xmlns="http://www.w3.org/2000/svg"><title>thumbs-up</title><path d="M36 0a36 36 0 1 0 36 36A36 36 0 0 0 36 0z" fill="#89c348"/><path d="M18 18h36v36H18z" fill="none"/><path d="M19.5 49.5h6v-18h-6zm33-16.5a3 3 0 0 0-3-3H40l1.42-6.86v-.48a2.26 2.26 0 0 0-.66-1.59l-1.5-1.57-9.87 9.89a2.93 2.93 0 0 0-.89 2.11v15a3 3 0 0 0 3 3H45a3 3 0 0 0 2.76-1.83l4.53-10.57a3 3 0 0 0 .21-1.1v-2.86z" fill="#fff"/></svg><svg viewBox="0 0 24 24" width="24" height="24" id="vol-off" x="252" y="192" xmlns="http://www.w3.org/2000/svg"><title>vol-off</title><path d="M16.5 12A4.5 4.5 0 0 0 14 8v2.21l2.45 2.45a4.23 4.23 0 0 0 .05-.66zm2.5 0a6.84 6.84 0 0 1-.54 2.64L20 16.15A8.8 8.8 0 0 0 21 12a9 9 0 0 0-7-8.77v2.06A7 7 0 0 1 19 12zM4.27 3L3 4.27 7.73 9H3v6h4l5 5v-6.73l4.25 4.25A6.92 6.92 0 0 1 14 18.7v2.06A9 9 0 0 0 17.69 19l2 2L21 19.73l-9-9zM12 4L9.91 6.09 12 8.18z" fill="#434a4f"/><path d="M0 0h24v24H0z" fill="none"/></svg><svg viewBox="0 0 24 24" width="24" height="24" id="vol-off-alt" x="252" y="168" xmlns="http://www.w3.org/2000/svg"><title>vol-off-alt</title><path d="M16.5 12A4.5 4.5 0 0 0 14 8v2.21l2.45 2.45a4.23 4.23 0 0 0 .05-.66zm2.5 0a6.84 6.84 0 0 1-.54 2.64L20 16.15A8.8 8.8 0 0 0 21 12a9 9 0 0 0-7-8.77v2.06A7 7 0 0 1 19 12zM4.27 3L3 4.27 7.73 9H3v6h4l5 5v-6.73l4.25 4.25A6.92 6.92 0 0 1 14 18.7v2.06A9 9 0 0 0 17.69 19l2 2L21 19.73l-9-9zM12 4L9.91 6.09 12 8.18z" fill="#fff"/><path d="M0 0h24v24H0z" fill="none"/></svg><svg viewBox="0 0 24 24" width="24" height="24" id="vol-on" x="192" y="228" xmlns="http://www.w3.org/2000/svg"><title>vol-on</title><path d="M3 9v6h4l5 5V4L7 9zm13.5 3A4.5 4.5 0 0 0 14 8v8a4.47 4.47 0 0 0 2.5-4zM14 3.23v2.06a7 7 0 0 1 0 13.42v2.06a9 9 0 0 0 0-17.54z" fill="#434a4f"/><path d="M0 0h24v24H0z" fill="none"/></svg><svg viewBox="0 0 24 24" width="24" height="24" id="vol-on-alt" x="168" y="228" xmlns="http://www.w3.org/2000/svg"><title>vol-on-alt</title><path d="M3 9v6h4l5 5V4L7 9zm13.5 3A4.5 4.5 0 0 0 14 8v8a4.47 4.47 0 0 0 2.5-4zM14 3.23v2.06a7 7 0 0 1 0 13.42v2.06a9 9 0 0 0 0-17.54z" fill="#fff"/><path d="M0 0h24v24H0z" fill="none"/></svg><svg viewBox="0 0 24 24" width="24" height="24" id="warning" x="144" y="228" xmlns="http://www.w3.org/2000/svg"><title>warning</title><path d="M0 0h24v24H0z" fill="none"/><path d="M1 21h22L12 2zm12-3h-2v-2h2zm0-4h-2v-4h2z" fill="#e55934"/></svg><svg viewBox="0 0 24 24" width="24" height="24" id="warning-alt" x="324" y="24" xmlns="http://www.w3.org/2000/svg"><title>warning-alt</title><path d="M0 0h24v24H0z" fill="none"/><path d="M1 21h22L12 2zm12-3h-2v-2h2zm0-4h-2v-4h2z" fill="#fff"/></svg></svg>