<svg xmlns="http://www.w3.org/2000/svg" viewBox="0 0 72 72"><title>loading</title><path d="M0,0H72V72H0Z" style="fill:none"/><circle cx="36" cy="9.5" r="3.5" style="fill:#434a4f"/><circle cx="36" cy="62.5" r="3.5" style="fill:#434a4f;opacity:0.46"/><circle cx="22.75" cy="13.05" r="3.5" transform="translate(-3.48 13.12) rotate(-30)" style="fill:#434a4f;opacity:0"/><circle cx="49.25" cy="58.95" r="3.5" transform="translate(-22.88 32.52) rotate(-30)" style="fill:#434a4f;opacity:0.55"/><circle cx="13.05" cy="22.75" r="3.5" transform="translate(-13.18 22.68) rotate(-60)" style="fill:#434a4f;opacity:0.1"/><circle cx="58.95" cy="49.25" r="3.5" transform="translate(-13.18 75.68) rotate(-60)" style="fill:#434a4f;opacity:0.64"/><circle cx="9.5" cy="36" r="3.5" style="fill:#434a4f;opacity:0.19"/><circle cx="62.5" cy="36" r="3.5" style="fill:#434a4f;opacity:0.73"/><circle cx="13.05" cy="49.25" r="3.5" transform="translate(-22.88 13.12) rotate(-30)" style="fill:#434a4f;opacity:0.28"/><circle cx="58.95" cy="22.75" r="3.5" transform="translate(-3.48 32.52) rotate(-30)" style="fill:#434a4f;opacity:0.8200000000000001"/><circle cx="22.75" cy="58.95" r="3.5" transform="translate(-39.68 49.18) rotate(-60)" style="fill:#434a4f;opacity:0.37"/><circle cx="49.25" cy="13.05" r="3.5" transform="translate(13.32 49.18) rotate(-60)" style="fill:#434a4f;opacity:0.91"/></svg>