<svg xmlns="http://www.w3.org/2000/svg" viewBox="0 0 24 24"><title>skip-fwd-alt</title><rect width="24" height="24" style="fill:none"/><path d="M4,13a8,8,0,0,0,16,0H18a6,6,0,1,1-6-6v4l5-5L12,1V5A8,8,0,0,0,4,13Z" style="fill:#fff"/><path d="M10.8,16.13H10V12.86l-1,.31v-.68l1.77-.63h.09Z" style="fill:#fff"/><path d="M15.06,14.36a2.16,2.16,0,0,1-.37,1.35,1.28,1.28,0,0,1-1.07.47,1.29,1.29,0,0,1-1.07-.46,2.1,2.1,0,0,1-.38-1.32v-.79a2.13,2.13,0,0,1,.37-1.36,1.29,1.29,0,0,1,1.07-.46,1.29,1.29,0,0,1,1.07.46,2.09,2.09,0,0,1,.38,1.32Zm-.85-.86a1.58,1.58,0,0,0-.14-.77.49.49,0,0,0-.45-.24.48.48,0,0,0-.44.23,1.46,1.46,0,0,0-.15.72v1a1.63,1.63,0,0,0,.14.78.48.48,0,0,0,.46.25.48.48,0,0,0,.45-.24,1.6,1.6,0,0,0,.14-.75Z" style="fill:#fff"/></svg>