<svg id="Layer_1" data-name="Layer 1" xmlns="http://www.w3.org/2000/svg" viewBox="0 0 72 72"><title>directions</title><path d="M36,0A36,36,0,1,0,72,36,36,36,0,0,0,36,0Z" style="fill:#6489bf"/><path d="M49.5,26.25V48a6,6,0,0,1-6,6h-11a6,6,0,0,1-4.28-1.79l-11.77-12s1.89-1.84,1.95-1.87a1.79,1.79,0,0,1,1.18-.44,2,2,0,0,1,.9.24c.06,0,6.47,3.69,6.47,3.69V24a2.25,2.25,0,0,1,4.5,0V34.5H33V20.25a2.25,2.25,0,0,1,4.5,0V34.5H39V21.75a2.25,2.25,0,0,1,4.5,0V34.5H45V26.25a2.25,2.25,0,0,1,4.5,0Z" style="fill:#fff"/></svg>