<?xml version="1.0" encoding="utf-8"?>
<!-- Generator: Adobe Illustrator 21.1.0, SVG Export Plug-In . SVG Version: 6.00 Build 0)  -->
<svg version="1.1" id="Layer_1" xmlns="http://www.w3.org/2000/svg" xmlns:xlink="http://www.w3.org/1999/xlink" x="0px" y="0px"
	 viewBox="0 0 72 72" style="enable-background:new 0 0 72 72;" xml:space="preserve">
<style type="text/css">
	.st0{fill:#D4441C;}
	.st1{fill:none;}
	.st2{fill:#FFFFFF;}
</style>
<title>retry</title>
<path class="st0" d="M36,0C16.1,0,0,16.1,0,36s16.1,36,36,36s36-16.1,36-36S55.9,0,36,0z"/>
<path class="st1" d="M18,18h36v36H18V18z"/>
<path class="st2" d="M36,22.5c-7.5,0-13.5,6-13.5,13.5l0,0H18l6,6l6-6h-4.5c0-5.8,4.7-10.5,10.5-10.5S46.5,30.2,46.5,36
	c0,5.8-4.7,10.5-10.5,10.5c-2.2,0-4.3-0.7-6.1-2l-2.1,2.2c5.9,4.5,14.4,3.4,18.9-2.5s3.4-14.4-2.5-18.9C41.9,23.5,39,22.5,36,22.5z"
	/>
<circle class="st0" cx="36" cy="36" r="3"/>
</svg>
