<?xml version="1.0" encoding="utf-8"?>
<!-- Generator: Adobe Illustrator 21.1.0, SVG Export Plug-In . SVG Version: 6.00 Build 0)  -->
<svg version="1.1" id="Layer_1" xmlns="http://www.w3.org/2000/svg" xmlns:xlink="http://www.w3.org/1999/xlink" x="0px" y="0px"
	 viewBox="0 0 72 72" style="enable-background:new 0 0 72 72;" xml:space="preserve">
<style type="text/css">
	.st0{fill:#89C348;}
	.st1{fill:none;}
	.st2{fill:#FFFFFF;}
</style>
<title>thumbs-up</title>
<path class="st0" d="M36,0C16.1,0,0,16.1,0,36s16.1,36,36,36s36-16.1,36-36S55.9,0,36,0z"/>
<path class="st1" d="M18,18h36v36H18V18z"/>
<path class="st2" d="M19.5,49.5h6v-18h-6V49.5z M52.5,33c0-1.7-1.3-3-3-3H40l1.4-6.9v-0.5c0-0.6-0.2-1.2-0.7-1.6l-1.5-1.6l-9.9,9.9
	c-0.6,0.6-0.9,1.3-0.9,2.1v15c0,1.7,1.3,3,3,3H45c1.2,0,2.3-0.7,2.8-1.8l4.5-10.6c0.1-0.4,0.2-0.7,0.2-1.1v-2.9l0,0V33z"/>
</svg>
