<svg xmlns="http://www.w3.org/2000/svg" viewBox="0 0 72 72"><title>thumbs-down</title><path d="M36,0A36,36,0,1,0,72,36,36,36,0,0,0,36,0Z" style="fill:#bc3644"/><path d="M18,18H54V54H18Z" style="fill:none"/><rect x="18" y="18" width="36" height="36" style="fill:#fff;opacity:0"/><path d="M40.5,22.5H27a3,3,0,0,0-2.76,1.83L19.71,34.91A3,3,0,0,0,19.5,36v3a3,3,0,0,0,3,3H32l-1.42,6.85v.48a2.26,2.26,0,0,0,.66,1.59l1.59,1.58,9.89-9.89a3,3,0,0,0,.87-2.11v-15a3,3,0,0,0-3-3Zm6,0v18h6v-18Z" style="fill:#fff"/></svg>