<svg xmlns="http://www.w3.org/2000/svg" viewBox="0 0 600 436">
  <defs>
    <style>
      .cls-1 {
        fill: #babfc3;
      }

      .cls-2 {
        fill: #154f51;
      }

      .cls-3, .cls-6 {
        font-size: 24px;
        font-family: Roboto-Bold, Roboto;
        font-weight: 700;
      }

      .cls-3 {
        fill: #fff;
      }

      .cls-4 {
        letter-spacing: -0.02em;
      }

      .cls-5 {
        fill: #89c348;
      }

      .cls-6 {
        fill: #092223;
      }

      .cls-7 {
        letter-spacing: -0.02em;
      }

      .cls-8 {
        fill: #123054;
      }
    </style>
  </defs>
  <title>vha-gears</title>
  <g id="g-paths">
    <g>
      <path class="cls-1" d="M178.47,157.8h-2.84l4.25,7.36,4.25-7.36h-2.81c.67-72.33,59.7-131,132.18-131V24C239.45,24,179.15,83.91,178.47,157.8Z"/>
      <path class="cls-1" d="M71.08,236.07l2.12,1.87,1.67-8.34-8.06,2.72,2.13,1.87A119.75,119.75,0,0,0,79.33,398.07L81.27,396A116.91,116.91,0,0,1,71.08,236.07Z"/>
      <path class="cls-1" d="M526.07,228.26l-2,2.06A102,102,0,0,1,532.53,369l-2.13-1.88-1.69,8.34,8.07-2.71-2.12-1.87A104.88,104.88,0,0,0,526.07,228.26Z"/>
    </g>
  </g>
  <g id="g-variability">
    <path id="_Compound_Path_" data-name="&lt;Compound Path&gt;" class="cls-2" d="M426.48,171.94l-20.09-9.59a93.9,93.9,0,0,0-1.22-18.66l18.68-12.12a3,3,0,0,0,1.19-3.46l-4.2-12.36a3,3,0,0,0-3-2l-22.21,1.73a93.18,93.18,0,0,0-10.38-15.55l10.11-19.84a3,3,0,0,0-.69-3.59l-9.82-8.62a3,3,0,0,0-3.64-.22L362.81,80.26A93.65,93.65,0,0,0,346.05,72l-1.17-22.23A3,3,0,0,0,342.49,47l-12.81-2.56a3,3,0,0,0-3.28,1.64l-9.6,20.09a93.85,93.85,0,0,0-18.65,1.21L286,48.69a3,3,0,0,0-3.46-1.19l-12.36,4.2a3,3,0,0,0-2,3L269.93,77a93.8,93.8,0,0,0-15.55,10.38L234.53,77.22a3,3,0,0,0-3.58.69l-8.62,9.82a3,3,0,0,0-.22,3.64l12.61,18.36a94,94,0,0,0-8.28,16.76l-22.23,1.17a3,3,0,0,0-2.77,2.4l-2.55,12.81a3,3,0,0,0,1.64,3.27l20.09,9.6a93.85,93.85,0,0,0,1.21,18.65l-18.68,12.13A3,3,0,0,0,202,190l4.2,12.37a3,3,0,0,0,3.05,2l22.2-1.73a94.13,94.13,0,0,0,10.38,15.54L231.68,238a3,3,0,0,0,.69,3.59l9.82,8.61a3,3,0,0,0,3.64.23l18.36-12.61A93.94,93.94,0,0,0,281,246.1l1.17,22.23a3,3,0,0,0,2.4,2.77l12.81,2.55A3,3,0,0,0,300.6,272l9.6-20.09a93.11,93.11,0,0,0,18.65-1.22L341,269.39a3,3,0,0,0,3.46,1.19l12.37-4.19a3,3,0,0,0,2-3.05l-1.74-22.21a93.18,93.18,0,0,0,15.55-10.38l19.85,10.11a3,3,0,0,0,3.58-.69l8.62-9.81a3,3,0,0,0,.22-3.65l-12.6-18.36a94.29,94.29,0,0,0,8.27-16.76l22.23-1.17a3,3,0,0,0,2.77-2.39l2.55-12.81A3,3,0,0,0,426.48,171.94Z"/>
    <text class="cls-3" transform="translate(259.12 166.75)"><tspan class="cls-4">V</tspan><tspan x="15.15" y="0">ariability</tspan></text>
  </g>
  <g id="g-velocity">
    <path id="_Compound_Path_2" data-name="&lt;Compound Path&gt;" class="cls-5" d="M534.35,298.3l-15.2-5.13a67.47,67.47,0,0,0-2.48-13.24L529,269.64a2.14,2.14,0,0,0,.55-2.57l-4.07-8.48a2.14,2.14,0,0,0-2.36-1.18l-15.73,3.16a67.4,67.4,0,0,0-8.77-10.23l5.52-15.07a2.15,2.15,0,0,0-.81-2.51l-7.76-5.31a2.15,2.15,0,0,0-2.63.15l-12,10.61a67.14,67.14,0,0,0-12.71-4.47l-2.75-15.81a2.16,2.16,0,0,0-2-1.77l-9.38-.72a2.15,2.15,0,0,0-2.2,1.45l-5.13,15.2a68.08,68.08,0,0,0-13.24,2.49l-10.29-12.32a2.15,2.15,0,0,0-2.57-.55l-8.49,4.07a2.15,2.15,0,0,0-1.18,2.35l3.16,15.74a66.76,66.76,0,0,0-10.22,8.77l-15.07-5.52a2.15,2.15,0,0,0-2.51.8L381,255.69a2.14,2.14,0,0,0,.16,2.62l10.6,12.05a68,68,0,0,0-4.47,12.7l-15.8,2.76a2.13,2.13,0,0,0-1.77,1.95l-.72,9.39a2.13,2.13,0,0,0,1.45,2.2l15.2,5.13a67.47,67.47,0,0,0,2.48,13.24L375.84,328a2.14,2.14,0,0,0-.55,2.57l4.07,8.48a2.14,2.14,0,0,0,2.36,1.18l15.73-3.16a67.4,67.4,0,0,0,8.77,10.23l-5.52,15.07a2.15,2.15,0,0,0,.81,2.51l7.76,5.31a2.15,2.15,0,0,0,2.63-.15l12-10.61a67.14,67.14,0,0,0,12.71,4.47l2.75,15.81a2.16,2.16,0,0,0,2,1.77l9.38.72a2.15,2.15,0,0,0,2.2-1.45l5.13-15.2a68.08,68.08,0,0,0,13.24-2.49L481.6,375.4a2.15,2.15,0,0,0,2.57.55l8.49-4.07a2.15,2.15,0,0,0,1.18-2.35l-3.16-15.74A66.76,66.76,0,0,0,500.9,345L516,350.54a2.15,2.15,0,0,0,2.51-.8L523.8,342a2.14,2.14,0,0,0-.16-2.62L513,327.3a68,68,0,0,0,4.47-12.7l15.8-2.76a2.13,2.13,0,0,0,1.77-1.95l.72-9.39A2.13,2.13,0,0,0,534.35,298.3Z"/>
    <text class="cls-6" transform="translate(411.43 310.1)"><tspan class="cls-7">V</tspan><tspan x="15.18" y="0">elocity</tspan></text>
  </g>
  <g id="g-visibility">
    <path id="_Compound_Path_3" data-name="&lt;Compound Path&gt;" class="cls-8" d="M260.93,310l-18.48-6.24a82.51,82.51,0,0,0-3-16.1l15-12.51a2.62,2.62,0,0,0,.67-3.13l-5-10.31a2.6,2.6,0,0,0-2.86-1.43l-19.14,3.84a81.63,81.63,0,0,0-10.66-12.44l6.71-18.32a2.61,2.61,0,0,0-1-3l-9.45-6.46a2.61,2.61,0,0,0-3.19.18l-14.65,12.9a82.42,82.42,0,0,0-15.45-5.44l-3.35-19.22a2.59,2.59,0,0,0-2.37-2.15l-11.41-.87a2.61,2.61,0,0,0-2.68,1.76l-6.24,18.49a81.76,81.76,0,0,0-16.1,3l-12.5-15a2.59,2.59,0,0,0-3.13-.67l-10.32,4.94a2.62,2.62,0,0,0-1.43,2.87l3.84,19.13a82,82,0,0,0-12.43,10.66L84,247.72a2.61,2.61,0,0,0-3,1l-6.46,9.44a2.62,2.62,0,0,0,.19,3.2L87.59,276a81.94,81.94,0,0,0-5.43,15.45l-19.22,3.35a2.6,2.6,0,0,0-2.15,2.38l-.88,11.41a2.6,2.6,0,0,0,1.77,2.67l18.48,6.24a82.51,82.51,0,0,0,3,16.1l-15,12.51a2.62,2.62,0,0,0-.67,3.13l5,10.31A2.6,2.6,0,0,0,75.34,361l19.14-3.84a81.63,81.63,0,0,0,10.66,12.44l-6.71,18.32a2.61,2.61,0,0,0,1,3.05l9.45,6.46a2.61,2.61,0,0,0,3.19-.18l14.64-12.9a82.77,82.77,0,0,0,15.46,5.44L145.48,409a2.61,2.61,0,0,0,2.38,2.16l11.41.87a2.61,2.61,0,0,0,2.68-1.76l6.24-18.49a81.66,81.66,0,0,0,16.09-3l12.51,15a2.59,2.59,0,0,0,3.13.67l10.32-4.94a2.62,2.62,0,0,0,1.43-2.87l-3.84-19.13a82,82,0,0,0,12.43-10.66l18.33,6.71a2.6,2.6,0,0,0,3-1l6.47-9.44a2.62,2.62,0,0,0-.19-3.2L235,345.22a81.51,81.51,0,0,0,5.44-15.45l19.22-3.35a2.6,2.6,0,0,0,2.15-2.38l.88-11.41A2.6,2.6,0,0,0,260.93,310Z"/>
    <text class="cls-3" transform="translate(111.66 322.46)">Visibility</text>
  </g>
</svg>
