<svg xmlns="http://www.w3.org/2000/svg" viewBox="0 0 1158 436">
  <defs>
    <style>
      .cls-1, .cls-2, .cls-4, .cls-5, .cls-6, .cls-7, .cls-8 {
        fill: none;
        stroke: #5e89bd;
        stroke-miterlimit: 10;
        stroke-width: 3px;
      }

      .cls-2 {
        stroke-dasharray: 2.86 2.86;
      }

      .cls-3 {
        fill: #5e89bd;
      }

      .cls-4 {
        stroke-dasharray: 3;
      }

      .cls-5 {
        stroke-dasharray: 2.99 2.99;
      }

      .cls-6 {
        stroke-dasharray: 3.05 3.05;
      }

      .cls-7 {
        stroke-dasharray: 3.09 3.09;
      }

      .cls-8 {
        stroke-dasharray: 3.03 3.03;
      }

      .cls-9 {
        fill: #fcefec;
      }

      .cls-10 {
        fill: #ec866b;
      }

      .cls-11, .cls-38, .cls-43, .cls-47 {
        font-size: 15px;
      }

      .cls-11 {
        fill: #3f190f;
      }

      .cls-11, .cls-38, .cls-47 {
        font-family: Roboto-Regular, Roboto;
      }

      .cls-12 {
        letter-spacing: 0.03em;
      }

      .cls-13 {
        letter-spacing: 0.02em;
      }

      .cls-14 {
        letter-spacing: -0.09em;
      }

      .cls-15 {
        letter-spacing: 0em;
      }

      .cls-16 {
        letter-spacing: 0.03em;
      }

      .cls-17 {
        letter-spacing: 0.04em;
      }

      .cls-18 {
        letter-spacing: -0.02em;
      }

      .cls-19 {
        letter-spacing: 0.03em;
      }

      .cls-20 {
        letter-spacing: 0em;
      }

      .cls-21 {
        letter-spacing: 0.03em;
      }

      .cls-22 {
        letter-spacing: -0.09em;
      }

      .cls-23 {
        letter-spacing: 0.02em;
      }

      .cls-24 {
        letter-spacing: 0.01em;
      }

      .cls-25 {
        letter-spacing: 0.04em;
      }

      .cls-26 {
        letter-spacing: 0.01em;
      }

      .cls-27 {
        letter-spacing: 0em;
      }

      .cls-28 {
        letter-spacing: -0.03em;
      }

      .cls-29 {
        letter-spacing: 0.01em;
      }

      .cls-30 {
        letter-spacing: -0.06em;
      }

      .cls-31 {
        letter-spacing: 0.02em;
      }

      .cls-32 {
        letter-spacing: -0.02em;
      }

      .cls-33 {
        letter-spacing: 0em;
      }

      .cls-34 {
        letter-spacing: -0.01em;
      }

      .cls-35 {
        letter-spacing: -0.02em;
      }

      .cls-36 {
        letter-spacing: 0em;
      }

      .cls-37 {
        fill: #d6e1ee;
      }

      .cls-38 {
        fill: #123054;
      }

      .cls-39 {
        letter-spacing: 0.01em;
      }

      .cls-40 {
        letter-spacing: -0.01em;
      }

      .cls-41 {
        letter-spacing: -0.01em;
      }

      .cls-42 {
        fill: #1b4a83;
      }

      .cls-43, .cls-50 {
        fill: #fefefe;
      }

      .cls-43 {
        font-family: Roboto-Bold, Roboto;
        font-weight: 700;
      }

      .cls-44 {
        letter-spacing: -0.01em;
      }

      .cls-45 {
        fill: #f5f6f6;
      }

      .cls-46 {
        fill: #babfc3;
      }

      .cls-47 {
        fill: #141617;
      }

      .cls-48 {
        letter-spacing: -0.02em;
      }

      .cls-49 {
        letter-spacing: -0.02em;
      }
    </style>
  </defs>
  <title>vha-org-chart</title>
  <g class="Paths">
    <line class="cls-1" x1="127" y1="58" x2="127" y2="225.95"/>
    <g>
      <line class="cls-1" x1="127" y1="222.5" x2="127" y2="224"/>
      <line class="cls-2" x1="127" y1="226.86" x2="127" y2="282.57"/>
      <line class="cls-1" x1="127" y1="284" x2="127" y2="285.5"/>
      <polygon class="cls-3" points="122.06 284.06 127 292.6 131.94 284.06 122.06 284.06"/>
    </g>
    <line class="cls-4" x1="131.48" y1="274.05" x2="351.56" y2="274.05"/>
    <line class="cls-1" x1="579" y1="350" x2="579" y2="44.25"/>
    <g>
      <polyline class="cls-1" points="353 313.67 353 350 692 350 692 162 805 162 805 173.33"/>
      <polygon class="cls-3" points="348.36 315.03 353 307 357.64 315.03 348.36 315.03"/>
      <polygon class="cls-3" points="800.36 171.97 805 180 809.64 171.97 800.36 171.97"/>
    </g>
    <g>
      <line class="cls-1" x1="230" y1="393" x2="231.5" y2="393"/>
      <line class="cls-5" x1="234.49" y1="393" x2="796" y2="393"/>
      <polyline class="cls-1" points="797.5 393 799 393 799 391.5"/>
      <line class="cls-6" x1="799" y1="388.45" x2="799" y2="316.7"/>
      <line class="cls-1" x1="799" y1="315.17" x2="799" y2="313.67"/>
      <polygon class="cls-3" points="803.64 315.03 799 307 794.36 315.03 803.64 315.03"/>
    </g>
    <g>
      <line class="cls-1" x1="821.33" y1="310" x2="821.33" y2="311.5"/>
      <line class="cls-7" x1="821.33" y1="314.6" x2="821.33" y2="374.92"/>
      <polyline class="cls-1" points="821.33 376.47 821.33 377.97 822.83 377.97"/>
      <line class="cls-8" x1="825.87" y1="377.97" x2="915.31" y2="377.97"/>
      <line class="cls-1" x1="916.83" y1="377.97" x2="918.33" y2="377.97"/>
      <polygon class="cls-3" points="916.97 382.61 925 377.97 916.97 373.33 916.97 382.61"/>
    </g>
    <g>
      <polyline class="cls-1" points="908 203.5 1031 203.5 1031 254.33"/>
      <polygon class="cls-3" points="1026.36 252.97 1031 261 1035.64 252.97 1026.36 252.97"/>
    </g>
  </g>
  <g data-svg-select class="vaoalc">
    <g>
      <rect class="cls-9" x="25" y="25" width="204" height="66" rx="2" ry="2"/>
      <path class="cls-10" d="M227,26a1,1,0,0,1,1,1V89a1,1,0,0,1-1,1H27a1,1,0,0,1-1-1V27a1,1,0,0,1,1-1H227m0-2H27a3,3,0,0,0-3,3V89a3,3,0,0,0,3,3H227a3,3,0,0,0,3-3V27a3,3,0,0,0-3-3Z"/>
    </g>
    <text class="cls-11" transform="translate(46.3 53.74)"><tspan class="cls-12">V<tspan class="cls-13" x="10.02" y="0">A</tspan><tspan class="cls-14" x="20.12" y="0"> </tspan><tspan class="cls-15" x="22.46" y="0">O</tspan><tspan class="cls-16" x="32.83" y="0">ff</tspan><tspan class="cls-17" x="44.08" y="0">i</tspan><tspan class="cls-18" x="48.28" y="0">c</tspan><tspan class="cls-19" x="55.8" y="0">e</tspan><tspan class="cls-14" x="64.27" y="0"> </tspan><tspan class="cls-20" x="66.61" y="0">o</tspan><tspan class="cls-21" x="75.24" y="0">f</tspan><tspan class="cls-22" x="80.86" y="0"> </tspan><tspan class="cls-23" x="83.2" y="0">A</tspan><tspan class="cls-18" x="93.3" y="0">c</tspan><tspan class="cls-24" x="100.82" y="0">qu</tspan><tspan class="cls-25" x="117.82" y="0">i</tspan><tspan class="cls-26" x="122.02" y="0">s</tspan><tspan class="cls-17" x="129.87" y="0">i</tspan><tspan class="cls-27" x="134.07" y="0">t</tspan><tspan class="cls-28" x="138.95" y="0">i</tspan><tspan class="cls-29" x="142.16" y="0">o</tspan><tspan class="cls-30" x="150.79" y="0">n</tspan><tspan class="cls-31" x="158.19" y="0">,</tspan></tspan><tspan class="cls-32" x="0.06" y="18">L</tspan><tspan class="cls-20" x="7.83" y="18">o</tspan><tspan class="cls-33" x="16.46" y="18">g</tspan><tspan class="cls-17" x="24.82" y="18">i</tspan><tspan class="cls-26" x="29.01" y="18">s</tspan><tspan class="cls-27" x="36.87" y="18">t</tspan><tspan class="cls-17" x="41.75" y="18">i</tspan><tspan class="cls-18" x="45.95" y="18">c</tspan><tspan class="cls-26" x="53.47" y="18">s</tspan><tspan class="cls-22" x="61.32" y="18"> </tspan><tspan class="cls-34" x="63.66" y="18">&amp;</tspan><tspan class="cls-22" x="72.75" y="18"> </tspan><tspan x="75.09" y="18">C</tspan><tspan class="cls-29" x="84.85" y="18">o</tspan><tspan class="cls-24" x="93.48" y="18">n</tspan><tspan class="cls-26" x="101.86" y="18">s</tspan><tspan class="cls-27" x="109.72" y="18">t</tspan><tspan class="cls-35" x="114.6" y="18">r</tspan><tspan class="cls-24" x="119.45" y="18">u</tspan><tspan class="cls-18" x="127.83" y="18">c</tspan><tspan class="cls-36" x="135.35" y="18">t</tspan><tspan class="cls-25" x="140.23" y="18">i</tspan><tspan class="cls-29" x="144.43" y="18">o</tspan><tspan x="153.06" y="18">n</tspan></text>
  </g>
  <g data-svg-select class="oal">
    <g>
      <rect class="cls-9" x="25" y="105" width="204" height="66" rx="2" ry="2"/>
      <path class="cls-10" d="M227,106a1,1,0,0,1,1,1v62a1,1,0,0,1-1,1H27a1,1,0,0,1-1-1V107a1,1,0,0,1,1-1H227m0-2H27a3,3,0,0,0-3,3v62a3,3,0,0,0,3,3H227a3,3,0,0,0,3-3V107a3,3,0,0,0-3-3Z"/>
    </g>
    <text class="cls-11" transform="translate(58.91 133.74)">Office of Acquisition <tspan x="31.3" y="18">&amp; Logistics</tspan></text>
  </g>
  <g data-svg-select class="olascm">
    <g>
      <rect class="cls-9" x="25" y="185" width="204" height="78" rx="2" ry="2"/>
      <path class="cls-10" d="M227,186a1,1,0,0,1,1,1v74a1,1,0,0,1-1,1H27a1,1,0,0,1-1-1V187a1,1,0,0,1,1-1H227m0-2H27a3,3,0,0,0-3,3v74a3,3,0,0,0,3,3H227a3,3,0,0,0,3-3V187a3,3,0,0,0-3-3Z"/>
    </g>
    <text class="cls-11" transform="translate(64.58 209.24)">Office of Logistics, <tspan x="-5.73" y="18">Acquisition &amp; Supply </tspan><tspan x="-2.65" y="36">Chain Management</tspan></text>
  </g>
  <g data-svg-select class="vhaplo">
    <g>
      <rect class="cls-37" x="25" y="296" width="204" height="66" rx="2" ry="2"/>
      <path class="cls-3" d="M227,297a1,1,0,0,1,1,1v62a1,1,0,0,1-1,1H27a1,1,0,0,1-1-1V298a1,1,0,0,1,1-1H227m0-2H27a3,3,0,0,0-3,3v62a3,3,0,0,0,3,3H227a3,3,0,0,0,3-3V298a3,3,0,0,0-3-3Z"/>
    </g>
    <text class="cls-38" transform="translate(60.44 326.68)">V<tspan class="cls-39" x="9.54" y="0">H</tspan><tspan x="20.37" y="0">A P</tspan><tspan class="cls-40" x="43.33" y="0">r</tspan><tspan x="48.26" y="0">ocu</tspan><tspan class="cls-41" x="72.93" y="0">r</tspan><tspan x="77.87" y="0">ement &amp; </tspan><tspan x="14.35" y="18">Logistics Office</tspan></text>
  </g>
  <g data-svg-select class="vhal">
    <g>
      <rect class="cls-37" x="25" y="372" width="204" height="39" rx="2" ry="2"/>
      <path class="cls-3" d="M227,373a1,1,0,0,1,1,1v35a1,1,0,0,1-1,1H27a1,1,0,0,1-1-1V374a1,1,0,0,1,1-1H227m0-2H27a3,3,0,0,0-3,3v35a3,3,0,0,0,3,3H227a3,3,0,0,0,3-3V374a3,3,0,0,0-3-3Z"/>
    </g>
    <text class="cls-38" transform="translate(79.8 396.3)">V<tspan class="cls-39" x="9.54" y="0">H</tspan><tspan x="20.37" y="0">A Logistics</tspan></text>
  </g>
  <g data-svg-select class="admin">
    <rect class="cls-42" x="250" y="24" width="658" height="40" rx="3" ry="3"/>
    <text class="cls-43" transform="translate(525.2 48.81)">Administ<tspan class="cls-44" x="60.67" y="0">r</tspan><tspan x="65.92" y="0">ations</tspan></text>
  </g>
  <g data-svg-select class="vba">
    <g>
      <rect class="cls-45" x="251" y="77" width="204" height="66" rx="2" ry="2"/>
      <path class="cls-46" d="M453,78a1,1,0,0,1,1,1v62a1,1,0,0,1-1,1H253a1,1,0,0,1-1-1V79a1,1,0,0,1,1-1H453m0-2H253a3,3,0,0,0-3,3v62a3,3,0,0,0,3,3H453a3,3,0,0,0,3-3V79a3,3,0,0,0-3-3Z"/>
    </g>
    <text class="cls-47" transform="translate(284.91 105.74)">Office of Acquisition <tspan x="31.3" y="18">&amp; Logistics</tspan></text>
  </g>
  <g data-svg-select class="adushao">
    <g>
      <rect class="cls-37" x="251" y="225" width="204" height="78" rx="2" ry="2"/>
      <path class="cls-3" d="M453,226a1,1,0,0,1,1,1v74a1,1,0,0,1-1,1H253a1,1,0,0,1-1-1V227a1,1,0,0,1,1-1H453m0-2H253a3,3,0,0,0-3,3v74a3,3,0,0,0,3,3H453a3,3,0,0,0,3-3V227a3,3,0,0,0-3-3Z"/>
    </g>
    <text class="cls-38" transform="translate(283.57 249.2)">Assist. Deputy Under <tspan x="-8.25" y="18">Sec</tspan><tspan class="cls-41" x="16.44" y="18">r</tspan><tspan x="21.38" y="18">eta</tspan><tspan class="cls-39" x="42.39" y="18">r</tspan><tspan x="47.59" y="18">y for Health for </tspan><tspan x="32.68" y="36">Admin Ops</tspan></text>
  </g>
  <g data-svg-select class="vba-2" data-name="vba">
    <g>
      <rect class="cls-37" x="477" y="77" width="204" height="66" rx="2" ry="2"/>
      <path class="cls-3" d="M679,78a1,1,0,0,1,1,1v62a1,1,0,0,1-1,1H479a1,1,0,0,1-1-1V79a1,1,0,0,1,1-1H679m0-2H479a3,3,0,0,0-3,3v62a3,3,0,0,0,3,3H679a3,3,0,0,0,3-3V79a3,3,0,0,0-3-3Z"/>
    </g>
    <text class="cls-38" transform="translate(525.86 105.74)"><tspan class="cls-48">V</tspan><tspan x="9.22" y="0">ete</tspan><tspan class="cls-49" x="30.01" y="0">r</tspan><tspan x="34.8" y="0">ans Health </tspan><tspan x="4.19" y="18">Administ</tspan><tspan class="cls-49" x="63.78" y="18">r</tspan><tspan x="68.56" y="18">ation</tspan></text>
  </g>
  <g data-svg-select class="uhs">
    <g>
      <rect class="cls-37" x="477" y="157" width="204" height="66" rx="2" ry="2"/>
      <path class="cls-3" d="M679,158a1,1,0,0,1,1,1v62a1,1,0,0,1-1,1H479a1,1,0,0,1-1-1V159a1,1,0,0,1,1-1H679m0-2H479a3,3,0,0,0-3,3v62a3,3,0,0,0,3,3H679a3,3,0,0,0,3-3V159a3,3,0,0,0-3-3Z"/>
    </g>
    <text class="cls-38" transform="translate(525.93 185.74)">Under Sec<tspan class="cls-41" x="67.9" y="0">r</tspan><tspan x="72.83" y="0">eta</tspan><tspan class="cls-39" x="93.84" y="0">r</tspan><tspan x="99.05" y="0">y </tspan><tspan x="20" y="18">for Health</tspan></text>
  </g>
  <g data-svg-select class="pdush">
    <g>
      <rect class="cls-37" x="477" y="237" width="204" height="66" rx="2" ry="2"/>
      <path class="cls-3" d="M679,238a1,1,0,0,1,1,1v62a1,1,0,0,1-1,1H479a1,1,0,0,1-1-1V239a1,1,0,0,1,1-1H679m0-2H479a3,3,0,0,0-3,3v62a3,3,0,0,0,3,3H679a3,3,0,0,0,3-3V239a3,3,0,0,0-3-3Z"/>
    </g>
    <text class="cls-38" transform="translate(503.23 265.74)">Principal Deputy Under <tspan x="9.36" y="18">Sec</tspan><tspan class="cls-41" x="34.06" y="18">r</tspan><tspan x="39" y="18">eta</tspan><tspan class="cls-39" x="60" y="18">r</tspan><tspan x="65.21" y="18">y for Health </tspan></text>
  </g>
  <g data-svg-select class="dushom">
    <g>
      <rect class="cls-37" x="477" y="317" width="204" height="66" rx="2" ry="2"/>
      <path class="cls-3" d="M679,318a1,1,0,0,1,1,1v62a1,1,0,0,1-1,1H479a1,1,0,0,1-1-1V319a1,1,0,0,1,1-1H679m0-2H479a3,3,0,0,0-3,3v62a3,3,0,0,0,3,3H679a3,3,0,0,0,3-3V319a3,3,0,0,0-3-3Z"/>
    </g>
    <text class="cls-38" transform="translate(489.56 344.74)">Deputy Under Sec<tspan class="cls-41" x="118.07" y="0">r</tspan><tspan x="123.01" y="0">eta</tspan><tspan class="cls-39" x="144.02" y="0">r</tspan><tspan x="149.22" y="0">y for </tspan><tspan x="13.12" y="18">Health for Ops &amp; Mgmt</tspan></text>
  </g>
  <g data-svg-select class="nca">
    <g>
      <rect class="cls-45" x="703" y="77" width="204" height="66" rx="2" ry="2"/>
      <path class="cls-46" d="M905,78a1,1,0,0,1,1,1v62a1,1,0,0,1-1,1H705a1,1,0,0,1-1-1V79a1,1,0,0,1,1-1H905m0-2H705a3,3,0,0,0-3,3v62a3,3,0,0,0,3,3H905a3,3,0,0,0,3-3V79a3,3,0,0,0-3-3Z"/>
    </g>
    <text class="cls-47" transform="translate(743.15 105.74)">National Cemete<tspan class="cls-39" x="111.39" y="0">r</tspan><tspan x="116.59" y="0">y </tspan><tspan x="12.9" y="18">Administ</tspan><tspan class="cls-49" x="72.48" y="18">r</tspan><tspan x="77.26" y="18">ation</tspan></text>
  </g>
  <g data-svg-select class="visnd">
    <g>
      <rect class="cls-50" x="703" y="184" width="204" height="39" rx="2" ry="2"/>
      <path class="cls-3" d="M905,185a1,1,0,0,1,1,1v35a1,1,0,0,1-1,1H705a1,1,0,0,1-1-1V186a1,1,0,0,1,1-1H905m0-2H705a3,3,0,0,0-3,3v35a3,3,0,0,0,3,3H905a3,3,0,0,0,3-3V186a3,3,0,0,0-3-3Z"/>
    </g>
    <text class="cls-38" transform="translate(756.37 207.81)">VISN Di<tspan class="cls-41" x="50.41" y="0">r</tspan><tspan x="55.34" y="0">ec</tspan><tspan class="cls-40" x="71.14" y="0">t</tspan><tspan x="75.89" y="0">ors</tspan></text>
  </g>
  <g data-svg-select class="visncsco">
    <g>
      <rect class="cls-50" x="703" y="237" width="204" height="66" rx="2" ry="2"/>
      <path class="cls-3" d="M905,238a1,1,0,0,1,1,1v62a1,1,0,0,1-1,1H705a1,1,0,0,1-1-1V239a1,1,0,0,1,1-1H905m0-2H705a3,3,0,0,0-3,3v62a3,3,0,0,0,3,3H905a3,3,0,0,0,3-3V239a3,3,0,0,0-3-3Z"/>
    </g>
    <text class="cls-38" transform="translate(744.9 265.74)">VISN Chief Supply <tspan x="12.7" y="18">Chain Officers</tspan></text>
  </g>
  <g data-svg-select class="mcd">
    <g>
      <rect class="cls-37" x="929" y="265" width="204" height="66" rx="2" ry="2"/>
      <path class="cls-3" d="M1131,266a1,1,0,0,1,1,1v62a1,1,0,0,1-1,1H931a1,1,0,0,1-1-1V267a1,1,0,0,1,1-1h200m0-2H931a3,3,0,0,0-3,3v62a3,3,0,0,0,3,3h200a3,3,0,0,0,3-3V267a3,3,0,0,0-3-3Z"/>
    </g>
    <text class="cls-38" transform="translate(980.79 293.74)">Medical Center<tspan x="20.04" y="18">Di</tspan><tspan class="cls-41" x="33.52" y="18">r</tspan><tspan x="38.46" y="18">ec</tspan><tspan class="cls-40" x="54.25" y="18">t</tspan><tspan x="59.01" y="18">ors</tspan></text>
  </g>
  <g data-svg-select class="csco">
    <g>
      <rect class="cls-37" x="929" y="344.97" width="204" height="66" rx="2" ry="2"/>
      <path class="cls-3" d="M1131,346a1,1,0,0,1,1,1v62a1,1,0,0,1-1,1H931a1,1,0,0,1-1-1V347a1,1,0,0,1,1-1h200m0-2H931a3,3,0,0,0-3,3v62a3,3,0,0,0,3,3h200a3,3,0,0,0,3-3V347a3,3,0,0,0-3-3Z"/>
    </g>
    <text class="cls-38" transform="translate(989.37 373.71)">Chief Supply <tspan x="-5.76" y="18">Chain Officers</tspan></text>
  </g>
</svg>
